<svg width="1301" height="953" viewBox="0 0 1301 953" fill="none" xmlns="http://www.w3.org/2000/svg">
<path d="M1202.03 61.6468C1221.7 45.7159 1236.94 44.2699 1249.1 57.37C1261.26 70.47 1259.63 86.1313 1243.49 103.704C1244.58 104.574 1245.63 105.444 1246.72 106.265C1259.49 116.069 1264.23 129.929 1259.99 145.382C1258.16 152.061 1256.47 158.862 1254.24 165.369C1250.49 176.398 1252.63 187.084 1255.98 197.758C1257.62 203.002 1259.21 208.296 1260.45 213.688C1264.12 229.754 1257.53 245.023 1243.67 253.038C1229.21 261.42 1212.45 259.618 1200.28 247.707C1182.19 229.987 1164.42 211.948 1146.53 194.02C1144.08 191.569 1141.76 188.861 1138.69 195.16C1150.33 206.507 1162.31 218.149 1174.23 229.84C1181.36 236.849 1188.48 243.883 1195.45 251.04C1207.86 263.797 1210.16 280.071 1201.69 294.801C1193.22 309.531 1178.21 315.83 1160.87 311.614C1155.51 310.315 1150.16 308.93 1144.94 307.129C1133.52 302.963 1121 302.963 1109.58 307.129C1105.03 308.954 1100.3 310.282 1095.47 311.087C1088.67 311.961 1081.8 312.272 1074.95 312.019C1056.75 311.32 1038.6 310.793 1020.73 315.021C1019.1 315.568 1017.66 316.557 1016.57 317.876C1012.9 321.822 1009.6 326.136 1005.69 329.812C1004.97 330.486 1001.49 329.457 1000.33 328.231C997.491 325.192 995.053 324.91 992.075 327.729C986.756 332.753 980.96 337.349 976.144 342.839C971.61 348.035 969.526 354.223 975.935 361L931.525 404.454L1045.69 518.25L1014.35 548.677L901.134 434.919L786.726 549.731C776.555 539.156 766.972 529.193 756.874 518.715L871.552 404.687C859.849 393.352 849.016 382.862 838.195 372.36C836.148 370.362 834.139 368.328 832.068 366.306C829.029 363.291 825.254 361.171 829.065 355.399C830.548 353.145 828.722 346.968 826.418 344.272C820.892 337.851 814.323 332.287 807.853 326.761C806.921 325.976 803.527 326.65 802.424 327.778C799.128 331.099 796.762 331.797 793.748 327.447C791.066 323.779 788.112 320.318 784.912 317.092C783.776 315.991 782.346 315.242 780.795 314.935C761.849 310.903 742.806 311.259 723.542 312.362C715.062 312.864 706.287 310.425 697.807 308.514C687.109 306.063 676.717 301.688 665.419 304.764C656.767 307.117 648.164 309.666 639.464 311.847C632.094 313.779 624.293 313.229 617.269 310.28C610.244 307.331 604.387 302.149 600.605 295.536C592.223 281.211 593.35 264.9 604.575 253.038C618.937 237.965 633.876 223.443 648.618 208.738C653.372 203.995 658.287 199.412 663.115 194.767C660.664 189.743 658.532 190.699 655.64 193.616C637.822 211.593 619.979 229.57 601.928 247.315C582.321 266.518 549.944 258.822 542.224 232.805C540.349 226.482 541.538 219.166 541.881 212.328C542.21 209.074 543.08 205.897 544.454 202.929C551.501 185.773 550.116 168.751 543.719 151.668C540.043 141.938 538.131 131.51 543.045 121.865C546.611 115.076 552.175 109.256 557.236 102.43C549.185 96.3025 543.891 87.4425 544.663 75.6537C545.122 68.4337 548.307 61.6577 553.572 56.696C566.12 44.4415 580.532 46.0223 600.139 62.0512C606.266 53.2034 613.987 46.7453 624.893 44.6865C634.378 42.8851 643.042 46.1571 651.853 48.608C662.441 51.5491 672.931 55.5318 684.217 52.3946C691.288 50.4462 698.346 48.4242 705.393 46.3777C728.149 39.7847 747.708 50.2501 753.345 72.5043C756.629 85.4695 752.548 96.7192 743.284 106.069C725.846 123.655 708.346 141.056 690.945 158.555C689.523 159.965 688.175 161.447 686.827 162.857C689.278 168.334 691.729 165.847 694.18 163.396C711.794 145.774 729.416 128.168 747.046 110.579C759.925 97.7608 776.788 95.4815 791.775 104.452C806.26 113.054 812.264 129.059 807.363 146.289C805.414 153.163 803.613 160.063 801.591 166.913C799.048 174.755 799.126 183.211 801.811 191.005C807.816 207.794 810.389 224.901 807.939 242.695C807.472 247.583 807.41 252.502 807.755 257.4C808.306 274.557 808.551 291.786 827.252 299.911C826.909 301.712 826.97 302.362 826.663 302.84C821.124 310.56 820.843 310.805 827.35 318.097C831.828 323.062 836.782 327.577 842.141 331.577C846.516 334.849 851.614 335.535 856.479 329.812L900.595 375.215L944.907 329.726C951.5 336.307 957.517 333.966 962.517 329.726C968.044 325.008 972.664 319.224 977.688 313.918C980.568 310.879 980.972 308.048 977.308 305.23C976.217 304.396 975.519 303.06 973.938 301.063C979.06 296.847 984.342 293.012 988.901 288.465C990.678 286.701 991.474 283.355 991.633 280.659C992.528 265.194 994.256 249.655 993.435 234.264C992.761 221.691 993.925 209.828 998.226 198.235C1003.21 184.756 1002.83 171.533 997.945 158.188C996.339 153.788 995.236 149.205 994.035 144.708C991.888 137.064 992.363 128.921 995.384 121.578C998.404 114.235 1003.8 108.115 1010.7 104.194C1025.17 95.8368 1042.11 97.8833 1054.06 109.709C1072.19 127.682 1090.25 145.713 1108.21 163.8C1110.97 166.57 1112.98 167.611 1115.56 162.244C1109.24 156.203 1102.54 149.989 1096.04 143.544C1083.69 131.346 1071.41 119.092 1059.19 106.78C1046.42 93.9619 1044.05 77.8595 1052.58 62.6639C1060.81 47.9585 1076.02 41.6229 1093.32 45.8385C1095.73 46.2862 1098.1 46.9004 1100.42 47.6766C1118.1 54.6985 1135.37 53.6323 1153.54 48.0198C1178.25 40.3239 1184.69 43.0567 1202.03 61.6468ZM1104.58 179.731C1083.15 157.967 1063.3 137.502 1042.93 117.527C1036.61 111.314 1028.3 110.787 1020.04 114.243C1007.78 119.378 1002.75 130.946 1008.28 146.031C1016.29 167.93 1016.91 189.363 1008.15 210.98C1007.77 212.141 1007.47 213.329 1007.26 214.534C1004.28 226.936 1007.78 236.114 1017.67 241.849C1027.36 247.474 1037.15 245.795 1046.42 236.641C1058.33 224.889 1070.05 212.941 1081.96 201.201C1089.36 193.946 1096.99 186.925 1104.58 179.731V179.731ZM652.576 180.025L651.167 178.604C651.044 178.224 651.044 177.734 650.799 177.476C630.898 157.563 611.217 137.441 591.034 117.809C583.252 110.236 571.659 110.456 562.91 117.037C553.866 123.826 551.783 132.686 555.949 146.742C560.777 163.004 566.243 179.143 560.103 196.397C558.031 202.583 556.273 208.869 554.834 215.232C551.868 227.144 555.631 236.359 565.459 241.849C575.287 247.339 584.968 245.746 593.754 237.009C608.668 222.193 623.447 207.243 638.422 192.488C642.895 188.089 647.846 184.18 652.576 180.025ZM1127.66 200.613C1107.33 221.017 1087.99 240.342 1068.74 259.68C1060.16 268.258 1058.59 279.152 1064.25 288.637C1069.92 298.122 1079.82 301.455 1091.92 298.33C1103.15 295.438 1114.52 290.978 1125.81 291.076C1137.94 291.137 1150.12 295.328 1162.13 298.318C1174.48 301.394 1184.4 298.183 1190.24 288.306C1195.73 279.005 1193.86 267.951 1185.34 259.373C1172.38 246.383 1159.31 233.455 1146.41 220.392C1140.1 214.081 1134.09 207.463 1127.66 200.637V200.613ZM698.016 177.93C718.848 199.093 738.627 219.681 759.006 239.668C766.616 247.143 777.989 246.714 786.579 240.268C795.819 233.332 798.515 224.583 793.576 210.662C786.224 190.086 784.447 169.805 792.878 149.193C793.684 146.884 794.327 144.521 794.802 142.122C797.804 130.333 794.152 121.106 784.275 115.469C774.717 110.003 764.741 111.437 756.384 119.721C742.622 133.458 728.934 147.171 715.27 160.871C709.523 166.619 703.726 172.305 698.016 177.954V177.93ZM674.732 156.815C683.2 148.066 690.761 140.1 698.494 132.306C710.405 120.272 722.525 108.434 734.387 96.3515C737.909 92.8788 740.185 88.3395 740.861 83.4395C741.537 78.5395 740.575 73.5535 738.125 69.2568C735.871 64.9787 732.27 61.5629 727.88 59.538C723.489 57.5132 718.553 56.9924 713.836 58.0562C708.043 59.2848 702.317 60.8105 696.68 62.6271C684.658 66.3893 672.563 68.5093 660.088 64.6614C652.306 62.2105 644.451 59.9679 636.498 58.2155C625.542 55.8136 616.45 60.2007 611.291 69.7348C606.524 78.4967 608.153 89.0479 615.616 96.6947C621.744 102.981 628.018 109.108 634.17 115.358C647.454 128.924 660.701 142.49 674.732 156.84V156.815ZM675.529 201.017C673.837 202.463 673.078 203.064 672.306 203.775C653.556 222.524 634.811 241.286 616.07 260.059C608.202 267.951 606.401 278.564 611.278 287.497C616.707 297.411 626.339 301.627 637.736 298.869C642.638 297.644 647.613 296.308 652.441 294.703C666.166 290.107 679.842 288.796 693.812 293.796C699.547 295.855 705.54 297.24 711.459 298.796C722.488 301.663 732.512 297.669 737.855 288.416C743.198 279.164 741.776 268.454 733.848 260.415C722.819 249.226 711.63 238.185 700.601 226.985C692.17 218.443 683.923 209.742 675.529 201.042V201.017ZM1127.35 156.742C1132.85 150.872 1137.33 145.847 1142.06 141.08C1156.76 126.302 1171.47 111.67 1186.17 96.854C1194.25 88.668 1195.61 78.2149 1190.25 68.8769C1185.05 59.8086 1175.55 55.8014 1164.52 58.3381C1159.16 59.5635 1153.9 61.1811 1148.59 62.7742C1136.94 66.3035 1125.31 68.6196 1113.15 64.833C1105.38 62.3821 1097.51 60.2007 1089.6 58.3136C1078.57 55.6543 1068.84 60.0414 1063.67 69.5754C1058.76 78.6438 1060.52 89.1826 1068.27 97.0133C1071.42 100.212 1074.6 103.373 1077.76 106.56L1127.35 156.742ZM1150.18 177.574C1150.46 178.428 1150.83 179.25 1151.29 180.025C1170.89 199.632 1190.34 219.46 1210.11 238.908C1217.69 246.371 1228.38 247.021 1237.2 241.555C1246.34 235.906 1250.47 226.237 1247.09 215.698C1240.06 193.763 1235.22 171.925 1245.06 149.524C1245.96 147.035 1246.67 144.478 1247.18 141.877C1249.97 130.995 1246.36 121.51 1237.37 115.922C1228.1 110.187 1217.77 111.314 1209.35 119.255C1203.84 124.427 1198.62 129.88 1193.24 135.186C1178.87 149.295 1164.51 163.4 1150.18 177.501V177.574ZM795.758 250.758C771.874 264.753 755.673 256.726 741.838 241.996C726.373 225.453 709.902 209.853 693.923 193.787C691.251 191.103 689.021 189.29 686.251 195.711C687.794 196.438 689.245 197.343 690.577 198.407C708.093 215.808 725.56 233.259 742.977 250.758C753.712 261.579 757.082 274.385 752.119 288.956C750.894 292.632 748.663 296.137 746.85 299.813C779.238 305.56 801.983 287.779 795.758 250.758ZM1055.06 299.776C1043.16 275.083 1044.98 264.704 1064.18 245.513C1080.05 229.632 1095.93 213.774 1111.8 197.941C1113.03 196.716 1114.14 195.331 1115.18 194.155C1112.59 189.424 1110.54 191.177 1108 193.726C1090.32 211.532 1072.46 229.203 1054.78 246.972C1045.21 256.579 1033.74 260.108 1020.66 257.069C1015.51 255.844 1010.74 253.001 1005.73 250.869C1000.14 292.044 1026.2 304.654 1055.06 299.776ZM553.498 77.6021C553.481 80.3094 553.997 82.9936 555.017 85.5013C556.037 88.009 557.542 90.2909 559.445 92.2167C561.348 94.1424 563.612 95.6741 566.107 96.7242C568.603 97.7744 571.281 98.3223 573.988 98.3368C578.016 98.3267 581.951 97.1267 585.299 94.8876C588.648 92.6484 591.26 89.4698 592.808 85.7511C594.356 82.0323 594.77 77.9391 594 73.9855C593.229 70.0318 591.307 66.394 588.476 63.5289C585.645 60.6637 582.03 58.699 578.086 57.8813C574.142 57.0637 570.044 57.4296 566.307 58.9332C562.57 60.4367 559.361 63.0109 557.082 66.3323C554.803 69.6538 553.556 73.5745 553.498 77.6021V77.6021ZM1227.5 98.1897C1231.53 98.2556 1235.49 97.1282 1238.88 94.9492C1242.27 92.7702 1244.94 89.637 1246.56 85.9436C1248.17 82.2502 1248.66 78.1615 1247.96 74.1918C1247.26 70.2221 1245.4 66.5487 1242.61 63.6335C1239.83 60.7184 1236.24 58.6916 1232.31 57.8082C1228.38 56.9248 1224.27 57.2242 1220.51 58.6687C1216.74 60.1133 1213.49 62.6384 1211.16 65.9266C1208.83 69.2148 1207.52 73.1192 1207.4 77.1487C1207.31 79.8615 1207.76 82.5652 1208.73 85.1007C1209.7 87.6363 1211.16 89.9524 1213.04 91.913C1214.92 93.8735 1217.17 95.4388 1219.66 96.5167C1222.15 97.5947 1224.83 98.1635 1227.54 98.1897H1227.5ZM1142.94 166.668L1209.31 100.69L1204.1 95.9104C1200.32 100.285 1197.1 104.489 1193.42 108.165C1176.37 125.395 1159.24 142.551 1142.05 159.634C1139.46 162.183 1137.85 164.34 1142.94 166.668ZM662.906 162.992L598.031 97.3932L592.002 101.204C598.068 106.78 603.57 111.559 608.742 116.669C624.534 132.282 640.24 147.976 655.86 163.751C658.556 166.46 660.578 167.673 662.906 162.992Z" fill="url(#paint0_radial_405_102)"/>
<path d="M1066.37 539.353C1080.23 553.408 1093.33 566.827 1106.59 580.111C1154.21 627.789 1201.86 675.439 1249.53 723.06C1253.87 727.398 1257.57 732.116 1256.74 738.562C1255.4 748.929 1248.16 755.265 1239.58 759.394C1231.56 763.267 1224.87 759.296 1218.87 753.267C1159.32 693.563 1099.68 633.925 1039.95 574.351C1036.47 570.896 1036.39 569.033 1039.95 565.663C1048.78 557.465 1057.05 548.752 1066.37 539.353Z" fill="url(#paint1_radial_405_102)"/>
<path d="M735.857 540.309L765.268 570.063C764.462 571.281 763.57 572.44 762.597 573.531C702.419 633.757 642.221 693.968 582.002 754.162C575.14 761.012 567.922 762.948 561.047 758.966C552.138 753.794 543.572 744.701 545.324 736.074C546.104 731.909 548.021 728.041 550.863 724.898C611.76 663.626 672.775 602.5 733.909 541.522C734.518 541.055 735.17 540.649 735.857 540.309V540.309Z" fill="url(#paint2_radial_405_102)"/>
<path d="M1213.82 760.044L1169.7 804.625C1161.03 800.569 1158.26 792.555 1157.39 783.633C1157.24 782.028 1158.69 779.957 1159.97 778.597C1166.37 772.041 1172.95 765.681 1179.13 759.578L1122.9 703.71C1117.75 709.163 1111.94 715.388 1106.03 721.515C1101.69 726.025 1091.26 726.417 1086.42 722.349C1083.31 719.726 1080.3 717.006 1077.4 714.506L1123.53 669.274L1213.82 760.044Z" fill="url(#paint3_radial_405_102)"/>
<path d="M602.712 627.376C596.683 621.69 590.556 615.746 584.245 610.011C581.046 607.095 580.495 604.399 580.801 599.669C581.377 590.698 587.37 586.838 592.284 582.01L637.981 627.646C636.878 628.871 635.383 630.746 633.704 632.425C605.997 660.132 578.203 687.754 550.692 715.547C547.114 719.223 545.067 719.223 541.538 715.547C529.345 702.925 516.808 690.646 504.431 678.208C503.206 676.982 502.078 675.487 501 674.237C505.436 664.74 513.72 662.105 522.739 661.064C524.1 660.904 525.938 662.571 527.163 663.796C533.781 670.401 540.288 677.129 546.709 683.698L602.712 627.376Z" fill="url(#paint4_radial_405_102)"/>
<path d="M1209.19 582.28C1218.16 586.52 1220.91 594.535 1221.85 603.456C1222.02 605.012 1220.44 607.132 1219.14 608.358C1212.68 614.865 1206.06 621.188 1199.85 627.23L1256.22 683.135C1261.22 677.853 1267.25 671.505 1273.24 665.231C1276.92 661.359 1288.13 660.721 1292.21 664.238C1294.87 666.463 1297.3 668.956 1299.45 671.677C1300.2 672.657 1300.24 675.353 1299.45 676.174C1285.36 690.88 1271.08 705.364 1257.16 719.58L1164.7 626.96L1209.19 582.28Z" fill="url(#paint5_radial_405_102)"/>
<path d="M633.189 805.47C617.086 789.393 602.136 774.467 586.033 758.413C616.51 728.402 647.306 698.133 677.734 668.146C692.782 683.526 707.684 698.783 723.075 714.444C719.399 721.454 711.764 725.093 702.402 725.583C700.735 725.669 698.726 724.26 697.316 722.973C691.598 717.483 685.965 711.866 680.417 706.123C678.297 703.917 676.741 703.464 674.4 705.829C657.109 723.132 639.732 740.35 621.78 758.193C628.311 764.785 634.426 770.962 640.553 777.126C644.72 781.317 645.37 791.623 641.571 796.218C638.826 799.478 635.799 802.554 633.189 805.47Z" fill="url(#paint6_radial_405_102)"/>
<path d="M751.078 518.25C752.424 519.199 753.717 520.222 754.95 521.314C764.901 531.24 774.79 541.239 784.753 551.141C787.376 553.739 788.148 555.773 784.753 558.592C781.077 561.692 778.099 565.724 774.349 568.763C773.124 569.78 769.447 569.915 768.442 568.91C757.724 558.633 747.205 548.131 736.887 537.404C735.833 536.313 735.502 532.906 736.372 531.877C740.14 527.639 744.12 523.594 748.296 519.757C749.155 519.138 750.09 518.632 751.078 518.25V518.25Z" fill="url(#paint7_radial_405_102)"/>
<path d="M1067 534.867C1066.13 536.096 1065.19 537.274 1064.19 538.396C1054.29 548.372 1044.3 558.261 1034.45 568.285C1031.62 571.165 1029.55 571.962 1026.6 568.212C1023.64 564.462 1019.78 561.815 1016.87 558.212C1015.8 556.901 1015.36 553.372 1016.27 552.428C1026.67 541.509 1037.33 530.848 1048.13 520.309C1049.11 519.341 1052.08 518.838 1052.88 519.549C1057.56 523.691 1061.89 528.25 1066.28 532.71C1066.64 533.09 1066.67 533.826 1067 534.867Z" fill="url(#paint8_radial_405_102)"/>
<path d="M75.78 51.52C80.82 51.52 86.22 51.94 91.98 52.78C97.86 53.62 102.48 54.82 105.84 56.38C106.92 56.74 107.64 57.22 108 57.82C108.36 58.3 108.6 59.2 108.72 60.52L110.88 85.54C110.88 85.9 110.58 86.14 109.98 86.26C109.5 86.38 109.14 86.2 108.9 85.72C104.94 76.48 99.54 69.22 92.7 63.94C85.98 58.66 78 56.02 68.76 56.02C60.72 56.02 53.88 58.06 48.24 62.14C42.72 66.22 38.52 71.92 35.64 79.24C32.88 86.44 31.5 94.84 31.5 104.44C31.5 112.72 32.52 120.52 34.56 127.84C36.6 135.04 39.48 141.4 43.2 146.92C46.92 152.32 51.36 156.58 56.52 159.7C61.68 162.82 67.38 164.38 73.62 164.38C81.3 164.38 88.14 161.86 94.14 156.82C100.26 151.78 105.72 143.98 110.52 133.42C110.76 132.94 111.18 132.76 111.78 132.88C112.38 133 112.68 133.24 112.68 133.6L109.98 158.08C109.74 159.52 109.44 160.48 109.08 160.96C108.84 161.32 108.18 161.74 107.1 162.22C101.58 164.26 96 165.76 90.36 166.72C84.84 167.68 79.44 168.16 74.16 168.16C62.52 168.16 52.56 166.42 44.28 162.94C36 159.34 29.22 154.66 23.94 148.9C18.78 143.02 14.94 136.66 12.42 129.82C10.02 122.86 8.82 116.02 8.82 109.3C8.82 100.42 10.62 92.44 14.22 85.36C17.94 78.28 22.92 72.22 29.16 67.18C35.52 62.14 42.66 58.3 50.58 55.66C58.62 52.9 67.02 51.52 75.78 51.52ZM204.29 168.16C195.65 168.16 187.79 166.66 180.71 163.66C173.75 160.54 167.75 156.28 162.71 150.88C157.79 145.48 153.95 139.3 151.19 132.34C148.55 125.26 147.23 117.76 147.23 109.84C147.23 100.12 149.09 91.6 152.81 84.28C156.65 76.96 161.69 70.9 167.93 66.1C174.17 61.18 181.01 57.52 188.45 55.12C195.89 52.72 203.27 51.52 210.59 51.52C219.47 51.52 227.39 53.14 234.35 56.38C241.43 59.5 247.43 63.76 252.35 69.16C257.27 74.56 260.99 80.68 263.51 87.52C266.15 94.36 267.47 101.38 267.47 108.58C267.47 116.98 265.79 124.78 262.43 131.98C259.07 139.18 254.45 145.48 248.57 150.88C242.81 156.28 236.09 160.54 228.41 163.66C220.85 166.66 212.81 168.16 204.29 168.16ZM210.23 163.66C216.95 163.66 222.95 161.74 228.23 157.9C233.51 154.06 237.65 148.42 240.65 140.98C243.77 133.54 245.33 124.48 245.33 113.8C245.33 102.76 243.65 92.92 240.29 84.28C236.93 75.64 232.13 68.86 225.89 63.94C219.65 58.9 212.15 56.38 203.39 56.38C192.47 56.38 184.07 60.52 178.19 68.8C172.31 77.08 169.37 88.54 169.37 103.18C169.37 111.94 170.39 120.04 172.43 127.48C174.47 134.8 177.29 141.22 180.89 146.74C184.61 152.14 188.93 156.34 193.85 159.34C198.89 162.22 204.35 163.66 210.23 163.66ZM22.86 361.14V275.64L28.26 276V361.14C28.26 367.5 29.58 372.54 32.22 376.26C34.86 379.98 38.52 381.84 43.2 381.84C43.44 381.84 43.56 382.2 43.56 382.92C43.56 383.64 43.44 384 43.2 384C40.56 384 37.8 383.94 34.92 383.82C32.16 383.7 29.1 383.64 25.74 383.64C22.14 383.64 18.6 383.7 15.12 383.82C11.76 383.94 8.64 384 5.76 384C5.4 384 5.22 383.64 5.22 382.92C5.22 382.2 5.4 381.84 5.76 381.84C11.04 381.84 15.18 379.98 18.18 376.26C21.3 372.54 22.86 367.5 22.86 361.14ZM114.66 386.7C114.66 387.06 114.36 387.24 113.76 387.24C113.28 387.36 112.92 387.36 112.68 387.24L23.94 286.26C19.62 281.34 15.96 278.04 12.96 276.36C9.96 274.56 6.96 273.66 3.96 273.66C3.72 273.66 3.6 273.3 3.6 272.58C3.6 271.86 3.72 271.5 3.96 271.5C6.36 271.5 8.82 271.56 11.34 271.68C13.86 271.8 16.2 271.86 18.36 271.86C22.68 271.86 26.58 271.8 30.06 271.68C33.54 271.56 36.24 271.5 38.16 271.5C39.72 271.5 40.86 272.22 41.58 273.66C42.42 274.98 44.28 277.38 47.16 280.86L113.22 357L114.66 386.7ZM114.66 294.54V386.7L109.44 381.3V294.54C109.44 288.18 108.12 283.14 105.48 279.42C102.84 275.58 99.18 273.66 94.5 273.66C94.26 273.66 94.14 273.3 94.14 272.58C94.14 271.86 94.26 271.5 94.5 271.5C97.14 271.5 99.84 271.62 102.6 271.86C105.48 271.98 108.6 272.04 111.96 272.04C115.2 272.04 118.38 271.98 121.5 271.86C124.62 271.62 127.5 271.5 130.14 271.5C130.38 271.5 130.5 271.86 130.5 272.58C130.5 273.3 130.38 273.66 130.14 273.66C125.34 273.66 121.56 275.58 118.8 279.42C116.04 283.14 114.66 288.18 114.66 294.54ZM226.143 269.52C231.183 269.52 236.583 269.94 242.343 270.78C248.223 271.62 252.843 272.82 256.203 274.38C257.283 274.74 258.003 275.22 258.363 275.82C258.723 276.3 258.963 277.2 259.083 278.52L261.243 303.54C261.243 303.9 260.943 304.14 260.343 304.26C259.863 304.38 259.503 304.2 259.263 303.72C255.303 294.48 249.903 287.22 243.063 281.94C236.343 276.66 228.363 274.02 219.123 274.02C211.083 274.02 204.243 276.06 198.603 280.14C193.083 284.22 188.883 289.92 186.003 297.24C183.243 304.44 181.863 312.84 181.863 322.44C181.863 330.72 182.883 338.52 184.923 345.84C186.963 353.04 189.843 359.4 193.563 364.92C197.283 370.32 201.723 374.58 206.883 377.7C212.043 380.82 217.743 382.38 223.983 382.38C231.663 382.38 238.503 379.86 244.503 374.82C250.623 369.78 256.083 361.98 260.883 351.42C261.123 350.94 261.543 350.76 262.143 350.88C262.743 351 263.043 351.24 263.043 351.6L260.343 376.08C260.103 377.52 259.803 378.48 259.443 378.96C259.203 379.32 258.543 379.74 257.463 380.22C251.943 382.26 246.363 383.76 240.723 384.72C235.203 385.68 229.803 386.16 224.523 386.16C212.883 386.16 202.923 384.42 194.643 380.94C186.363 377.34 179.583 372.66 174.303 366.9C169.143 361.02 165.303 354.66 162.783 347.82C160.383 340.86 159.183 334.02 159.183 327.3C159.183 318.42 160.983 310.44 164.583 303.36C168.303 296.28 173.283 290.22 179.523 285.18C185.883 280.14 193.023 276.3 200.943 273.66C208.983 270.9 217.383 269.52 226.143 269.52ZM40.86 587.42C40.86 590.9 41.16 593.54 41.76 595.34C42.36 597.14 43.56 598.34 45.36 598.94C47.16 599.54 49.92 599.84 53.64 599.84C54 599.84 54.18 600.2 54.18 600.92C54.18 601.64 54 602 53.64 602C50.52 602 47.04 601.94 43.2 601.82C39.36 601.7 35.16 601.64 30.6 601.64C26.28 601.64 22.14 601.7 18.18 601.82C14.22 601.94 10.68 602 7.56 602C7.32 602 7.2 601.64 7.2 600.92C7.2 600.2 7.32 599.84 7.56 599.84C11.28 599.84 14.04 599.54 15.84 598.94C17.76 598.34 19.02 597.14 19.62 595.34C20.34 593.54 20.7 590.9 20.7 587.42V504.08C20.7 500.6 20.34 498.02 19.62 496.34C19.02 494.54 17.76 493.34 15.84 492.74C14.04 492.02 11.28 491.66 7.56 491.66C7.32 491.66 7.2 491.3 7.2 490.58C7.2 489.86 7.32 489.5 7.56 489.5C10.68 489.5 14.22 489.62 18.18 489.86C22.14 489.98 26.28 490.04 30.6 490.04C35.16 490.04 39.36 489.98 43.2 489.86C47.16 489.62 50.64 489.5 53.64 489.5C54 489.5 54.18 489.86 54.18 490.58C54.18 491.3 54 491.66 53.64 491.66C50.04 491.66 47.28 492.02 45.36 492.74C43.56 493.46 42.36 494.72 41.76 496.52C41.16 498.32 40.86 500.96 40.86 504.44V587.42ZM166.463 602H86.9034C86.5434 602 86.3634 601.64 86.3634 600.92C86.3634 600.2 86.5434 599.84 86.9034 599.84C90.6234 599.84 93.3834 599.54 95.1834 598.94C96.9834 598.34 98.1834 597.14 98.7834 595.34C99.3834 593.54 99.6834 590.9 99.6834 587.42V504.08C99.6834 500.6 99.3834 498.02 98.7834 496.34C98.1834 494.54 96.9834 493.34 95.1834 492.74C93.3834 492.02 90.6234 491.66 86.9034 491.66C86.5434 491.66 86.3634 491.3 86.3634 490.58C86.3634 489.86 86.5434 489.5 86.9034 489.5H163.223C164.423 489.5 165.023 490.04 165.023 491.12L165.383 515.06C165.383 515.3 165.083 515.48 164.483 515.6C163.883 515.72 163.463 515.6 163.223 515.24C161.303 508.16 158.063 503 153.503 499.76C148.943 496.4 142.943 494.72 135.503 494.72H130.103C127.703 494.72 125.723 495.08 124.163 495.8C122.603 496.4 121.463 497.42 120.743 498.86C120.023 500.3 119.663 502.1 119.663 504.26V586.7C119.663 588.98 119.963 590.9 120.563 592.46C121.163 594.02 122.063 595.16 123.263 595.88C124.463 596.6 126.023 596.96 127.943 596.96H133.883C143.243 596.96 150.743 595.04 156.383 591.2C162.023 587.36 166.163 581.42 168.803 573.38C168.923 573.02 169.283 572.96 169.883 573.2C170.603 573.32 170.963 573.5 170.963 573.74C170.483 577.22 170.063 581.36 169.703 586.16C169.343 590.84 169.163 595.22 169.163 599.3C169.163 601.1 168.263 602 166.463 602ZM156.383 561.86C156.383 556.94 154.523 553.1 150.803 550.34C147.083 547.46 141.623 546.02 134.423 546.02H110.123V540.98H134.603C141.683 540.98 147.023 539.78 150.623 537.38C154.343 534.86 156.203 531.5 156.203 527.3C156.203 526.94 156.503 526.76 157.103 526.76C157.823 526.76 158.183 526.94 158.183 527.3C158.183 531.26 158.123 534.38 158.003 536.66C158.003 538.82 158.003 541.1 158.003 543.5C158.003 546.5 158.063 549.44 158.183 552.32C158.423 555.2 158.543 558.38 158.543 561.86C158.543 562.1 158.183 562.22 157.463 562.22C156.743 562.22 156.383 562.1 156.383 561.86ZM292.24 602C290.44 602 287.5 599.66 283.42 594.98C279.46 590.3 274.66 583.58 269.02 574.82C263.38 565.94 257.02 555.38 249.94 543.14L266.5 537.92C276.1 553.04 284.26 565.16 290.98 574.28C297.82 583.28 303.88 589.82 309.16 593.9C314.44 597.86 319.48 599.84 324.28 599.84C324.52 599.84 324.64 600.2 324.64 600.92C324.64 601.64 324.52 602 324.28 602C315.88 602 309.04 602 303.76 602C298.48 602 294.64 602 292.24 602ZM251.2 488.96C262.24 488.96 270.76 491 276.76 495.08C282.88 499.04 285.94 504.62 285.94 511.82C285.94 516.38 284.8 520.7 282.52 524.78C280.36 528.86 277.42 532.52 273.7 535.76C270.1 538.88 265.96 541.34 261.28 543.14C256.72 544.94 252.04 545.84 247.24 545.84C245.56 545.84 243.82 545.84 242.02 545.84C240.34 545.84 238.78 545.78 237.34 545.66V587.42C237.34 590.9 237.64 593.54 238.24 595.34C238.84 597.14 240.04 598.34 241.84 598.94C243.64 599.54 246.4 599.84 250.12 599.84C250.36 599.84 250.48 600.2 250.48 600.92C250.48 601.64 250.36 602 250.12 602C247 602 243.52 601.94 239.68 601.82C235.84 601.7 231.64 601.64 227.08 601.64C222.76 601.64 218.62 601.7 214.66 601.82C210.82 601.94 207.34 602 204.22 602C203.86 602 203.68 601.64 203.68 600.92C203.68 600.2 203.86 599.84 204.22 599.84C207.94 599.84 210.7 599.54 212.5 598.94C214.3 598.34 215.5 597.14 216.1 595.34C216.82 593.54 217.18 590.9 217.18 587.42V504.08C217.18 500.6 216.88 498.02 216.28 496.34C215.68 494.54 214.48 493.34 212.68 492.74C210.88 492.02 208.12 491.66 204.4 491.66C204.16 491.66 204.04 491.3 204.04 490.58C204.04 489.86 204.16 489.5 204.4 489.5C207.52 489.5 211 489.62 214.84 489.86C218.68 489.98 222.76 490.04 227.08 490.04C230.68 490.04 234.58 489.86 238.78 489.5C243.1 489.14 247.24 488.96 251.2 488.96ZM265.24 518.66C265.24 511.58 264.52 506.18 263.08 502.46C261.64 498.74 259.66 496.22 257.14 494.9C254.62 493.46 251.74 492.74 248.5 492.74C245.74 492.74 243.52 493.16 241.84 494C240.28 494.72 239.14 495.98 238.42 497.78C237.7 499.46 237.34 501.68 237.34 504.44V540.44C239.02 540.68 240.82 540.86 242.74 540.98C244.66 541.1 246.34 541.16 247.78 541.16C254.14 541.16 258.64 539.6 261.28 536.48C263.92 533.36 265.24 527.42 265.24 518.66ZM73.62 822.16C60.06 822.16 48.42 819.64 38.7 814.6C28.98 809.44 21.54 802.54 16.38 793.9C11.34 785.14 8.82 775.48 8.82 764.92C8.82 756.04 10.5 748 13.86 740.8C17.34 733.48 22.14 727.24 28.26 722.08C34.5 716.8 41.76 712.72 50.04 709.84C58.32 706.96 67.32 705.52 77.04 705.52C82.44 705.52 88.02 705.94 93.78 706.78C99.66 707.62 104.4 708.82 108 710.38C109.08 710.74 109.74 711.22 109.98 711.82C110.34 712.3 110.58 713.2 110.7 714.52L113.04 739.54C113.04 739.9 112.74 740.14 112.14 740.26C111.54 740.38 111.12 740.2 110.88 739.72C106.8 730.6 101.04 723.46 93.6 718.3C86.28 713.02 77.82 710.38 68.22 710.38C55.74 710.38 46.32 714.76 39.96 723.52C33.72 732.16 30.6 743.68 30.6 758.08C30.6 770.2 32.64 780.88 36.72 790.12C40.92 799.24 46.56 806.38 53.64 811.54C60.84 816.58 69 819.1 78.12 819.1C82.68 819.1 86.34 818.56 89.1 817.48C91.86 816.4 93.84 814.3 95.04 811.18C96.36 808.06 97.02 803.44 97.02 797.32C97.02 791.56 96.66 787.36 95.94 784.72C95.34 781.96 93.78 780.16 91.26 779.32C88.74 778.48 84.72 778.06 79.2 778.06C78.48 778.06 78.12 777.58 78.12 776.62C78.12 775.66 78.42 775.18 79.02 775.18C87.3 775.66 94.8 775.96 101.52 776.08C108.24 776.08 115.32 775.9 122.76 775.54C123.36 775.54 123.66 775.96 123.66 776.8C123.66 777.64 123.36 778.06 122.76 778.06C120.72 777.94 119.22 778.36 118.26 779.32C117.42 780.16 116.88 782.08 116.64 785.08C116.4 788.08 116.28 792.76 116.28 799.12C116.28 803.08 116.4 806.02 116.64 807.94C116.88 809.86 117.06 811.3 117.18 812.26C117.42 813.1 117.54 814 117.54 814.96C117.54 815.68 117.36 816.16 117 816.4C116.76 816.64 116.22 816.88 115.38 817.12C108.78 818.56 101.82 819.76 94.5 820.72C87.3 821.68 80.34 822.16 73.62 822.16ZM234.315 820H154.755C154.395 820 154.215 819.64 154.215 818.92C154.215 818.2 154.395 817.84 154.755 817.84C158.475 817.84 161.235 817.54 163.035 816.94C164.835 816.34 166.035 815.14 166.635 813.34C167.235 811.54 167.535 808.9 167.535 805.42V722.08C167.535 718.6 167.235 716.02 166.635 714.34C166.035 712.54 164.835 711.34 163.035 710.74C161.235 710.02 158.475 709.66 154.755 709.66C154.395 709.66 154.215 709.3 154.215 708.58C154.215 707.86 154.395 707.5 154.755 707.5H231.075C232.275 707.5 232.875 708.04 232.875 709.12L233.235 733.06C233.235 733.3 232.935 733.48 232.335 733.6C231.735 733.72 231.315 733.6 231.075 733.24C229.155 726.16 225.915 721 221.355 717.76C216.795 714.4 210.795 712.72 203.355 712.72H197.955C195.555 712.72 193.575 713.08 192.015 713.8C190.455 714.4 189.315 715.42 188.595 716.86C187.875 718.3 187.515 720.1 187.515 722.26V804.7C187.515 806.98 187.815 808.9 188.415 810.46C189.015 812.02 189.915 813.16 191.115 813.88C192.315 814.6 193.875 814.96 195.795 814.96H201.735C211.095 814.96 218.595 813.04 224.235 809.2C229.875 805.36 234.015 799.42 236.655 791.38C236.775 791.02 237.135 790.96 237.735 791.2C238.455 791.32 238.815 791.5 238.815 791.74C238.335 795.22 237.915 799.36 237.555 804.16C237.195 808.84 237.015 813.22 237.015 817.3C237.015 819.1 236.115 820 234.315 820ZM224.235 779.86C224.235 774.94 222.375 771.1 218.655 768.34C214.935 765.46 209.475 764.02 202.275 764.02H177.975V758.98H202.455C209.535 758.98 214.875 757.78 218.475 755.38C222.195 752.86 224.055 749.5 224.055 745.3C224.055 744.94 224.355 744.76 224.955 744.76C225.675 744.76 226.035 744.94 226.035 745.3C226.035 749.26 225.975 752.38 225.855 754.66C225.855 756.82 225.855 759.1 225.855 761.5C225.855 764.5 225.915 767.44 226.035 770.32C226.275 773.2 226.395 776.38 226.395 779.86C226.395 780.1 226.035 780.22 225.315 780.22C224.595 780.22 224.235 780.1 224.235 779.86Z" fill="black"/>
<path d="M308.158 922.267C315.509 922.267 320.099 916.756 320.099 907.579C320.099 897.245 315.666 891.745 308.235 891.745C300.349 891.745 296.367 896.718 296.367 906.737C296.367 916.832 300.735 922.267 308.158 922.267ZM290.02 872H296.598V892.579C299.664 888.076 304.031 885.696 309.533 885.696C319.947 885.696 327.147 893.81 327.147 907.117C327.147 920.201 320.099 928.231 309.615 928.231C304.107 928.231 299.968 926.316 296.598 921.968V927.009H290.02V872" fill="black"/>
<path d="M351.178 922.267C358.985 922.267 363.347 916.913 363.347 906.968C363.347 897.022 358.985 891.669 351.178 891.669C343.224 891.669 338.849 897.022 338.849 906.968C338.849 916.913 343.297 922.267 351.178 922.267V922.267ZM351.105 885.696C363.197 885.696 370.317 893.421 370.317 906.968C370.317 920.514 363.197 928.231 351.178 928.231C339.08 928.231 331.966 920.514 331.966 906.968C331.966 893.421 339.08 885.696 351.105 885.696Z" fill="black"/>
<path d="M394.127 922.267C401.471 922.267 406.064 916.756 406.064 907.579C406.064 897.245 401.635 891.745 394.202 891.745C386.322 891.745 382.341 896.718 382.341 906.737C382.341 916.832 386.702 922.267 394.127 922.267V922.267ZM375.987 872H382.572V892.579C385.629 888.076 390.004 885.696 395.498 885.696C405.914 885.696 413.115 893.81 413.115 907.117C413.115 920.201 406.064 928.231 395.588 928.231C390.072 928.231 385.933 926.316 382.572 921.968V927.009H375.987V872" fill="black"/>
<path d="M436.532 922.267C444.339 922.267 448.706 916.913 448.706 906.968C448.706 897.022 444.339 891.669 436.532 891.669C428.578 891.669 424.203 897.022 424.203 906.968C424.203 916.913 428.66 922.267 436.532 922.267V922.267ZM436.459 885.696C448.557 885.696 455.676 893.421 455.676 906.968C455.676 920.514 448.557 928.231 436.532 928.231C424.434 928.231 417.328 920.514 417.328 906.968C417.328 893.421 424.434 885.696 436.459 885.696Z" fill="black"/>
<path d="M461.567 886.994H468.306V927.008H461.567V886.994ZM461.567 872H468.306V879.657H461.567V872Z" fill="black"/>
<path d="M479.861 914.005C480.317 919.435 483.76 922.266 490.038 922.266C495.929 922.266 499.38 919.739 499.38 915.907C499.38 912.551 497.388 911.478 493.266 910.478L485.753 908.57C477.872 906.655 474.42 903.978 474.42 897.326C474.42 890.44 479.861 885.771 489.426 885.771C498.992 885.771 505.046 890.595 505.046 898.021V898.168H498.456C498.225 893.956 494.869 891.505 489.426 891.505C484 891.505 481.16 893.502 481.16 897.089C481.16 900.005 483.144 901.07 487.437 902.076L493.937 903.598C502.13 905.505 506.119 908.032 506.119 915.065C506.119 923.258 500.146 928.223 489.426 928.223C479.168 928.223 473.51 923.176 473.353 914.005" fill="black"/>
<path d="M61 886.484H75.9376V893.91C78.0789 887.946 81.9784 885.419 88.5653 885.419H90.0219V901.56C88.7936 901.411 87.7257 901.329 86.7284 901.329C80.2202 901.329 77.242 904.169 77.242 910.432V927.117H61" fill="black"/>
<path d="M114.979 917.32C119.873 917.32 121.707 913.964 121.707 906.763C121.707 899.57 119.873 896.274 114.979 896.274C110.076 896.274 108.318 899.57 108.318 906.763C108.318 913.964 110.076 917.32 114.979 917.32ZM114.979 885.038C129.288 885.038 137.944 893.298 137.944 906.763C137.944 920.228 129.288 928.57 114.979 928.57C100.655 928.57 92.0059 920.228 92.0059 906.763C92.0059 893.298 100.655 885.038 114.979 885.038Z" fill="black"/>
<path d="M186.014 911.282C185.321 921.913 177.055 928.57 163.962 928.57C149.421 928.57 140.617 920.078 140.617 906.763C140.617 893.298 149.421 885.032 163.818 885.032C177.055 885.032 185.479 891.771 185.862 901.94H169.707C169.403 898.114 167.49 896.274 163.739 896.274C158.989 896.274 156.924 899.644 156.924 906.763C156.924 913.964 158.908 917.32 163.587 917.32C167.332 917.32 169.479 915.255 169.865 911.282" fill="black"/>
<path d="M190.074 872.109H206.227V890.848C209.518 887.253 213.645 885.419 218.703 885.419C223.909 885.419 227.816 887.022 230.575 890.31C233.635 893.984 233.947 898.957 233.947 905.995V927.117H217.781V906.071C217.781 900.487 216.716 897.959 212.275 897.959C208.216 897.959 206.227 900.636 206.227 906.152V927.117H190.074" fill="black"/>
<path d="M268.156 902.252C267.854 897.206 265.401 894.671 260.805 894.671C256.596 894.671 253.998 897.429 253.756 902.252H268.156ZM282.781 915.097C280.561 923.902 272.898 928.57 260.349 928.57C246.267 928.57 237.609 920.078 237.609 907.144C237.609 893.521 246.487 885.032 260.96 885.032C275.357 885.032 284.083 894.059 284.083 909.364V910.35H253.756C253.914 915.559 256.596 918.467 261.267 918.467C264.406 918.467 266.544 917.244 267.314 915.097H282.781" fill="black"/>
<path d="M380.697 945.459C382.097 945.459 382.748 944.897 382.748 943.538C382.748 942.288 382.11 941.62 380.846 941.62H378.034V945.459H380.697ZM378.034 952.579H375.303V939.31H381.213C384.017 939.31 385.458 940.794 385.458 943.571C385.458 946.31 384.017 947.859 381.395 947.859H378.034V952.579" fill="black"/>
<path d="M409.923 947.62H413.61L411.763 941.968L409.923 947.62ZM413.334 939.31L418.122 952.579H415.255L414.353 949.848H409.203L408.333 952.579H405.453L410.181 939.31H413.334" fill="black"/>
<path d="M444.624 945.098C446.01 945.098 446.654 944.563 446.654 943.348C446.654 942.207 446.029 941.593 444.76 941.593H441.418V945.098H444.624ZM438.687 939.318H445.127C448.008 939.318 449.393 940.514 449.393 943.068C449.393 944.699 448.687 945.805 447.423 946.207C448.665 946.655 449.005 947.498 449.059 949.109L449.108 950.677C449.135 951.451 449.135 951.913 449.624 952.163V952.579H446.641C446.445 952.191 446.342 951.636 446.323 950.913L446.287 949.517C446.227 947.951 445.825 947.408 444.312 947.408H441.418V952.579H438.687V939.318Z" fill="black"/>
<path d="M471.16 952.579H473.891V939.318H471.16V952.579Z" fill="black"/>
<path d="M498.021 948.489C498.217 949.956 499.217 950.622 501.043 950.622C502.654 950.622 503.456 950.051 503.456 948.937C503.456 947.728 502.333 947.483 499.896 946.934C498.836 946.695 497.844 946.505 496.967 945.956C496.023 945.364 495.526 944.331 495.526 942.945C495.526 940.377 497.301 938.951 500.643 938.951C503.76 938.951 505.567 940.494 505.662 943.149H503.04C502.953 941.858 502.043 941.173 500.398 941.173C498.964 941.173 498.17 941.763 498.17 942.782C498.17 944.032 499.181 944.032 501.382 944.589C502.632 944.896 503.665 945.16 504.502 945.622C505.589 946.228 506.124 947.225 506.124 948.592C506.124 951.328 504.23 952.945 500.793 952.945C497.409 952.945 495.472 951.315 495.317 948.489" fill="black"/>
<path d="M13.65 927.28C11.9933 927.28 10.57 926.93 9.38 926.23C8.19 925.53 7.28 924.468 6.65 923.045C6.02 921.598 5.705 919.778 5.705 917.585C5.705 915.368 6.03167 913.548 6.685 912.125C7.36167 910.702 8.295 909.64 9.485 908.94C10.675 908.24 12.0633 907.89 13.65 907.89C15.4233 907.89 17.01 908.287 18.41 909.08C19.8333 909.873 20.9533 910.993 21.77 912.44C22.61 913.887 23.03 915.602 23.03 917.585C23.03 919.545 22.61 921.248 21.77 922.695C20.9533 924.142 19.8333 925.273 18.41 926.09C17.01 926.883 15.4233 927.28 13.65 927.28ZM2.52 927V901.03H7.98V911.985L7.63 917.55L7.735 923.15V927H2.52ZM12.705 922.8C13.615 922.8 14.42 922.59 15.12 922.17C15.8433 921.75 16.415 921.155 16.835 920.385C17.2783 919.592 17.5 918.658 17.5 917.585C17.5 916.488 17.2783 915.555 16.835 914.785C16.415 914.015 15.8433 913.42 15.12 913C14.42 912.58 13.615 912.37 12.705 912.37C11.795 912.37 10.9783 912.58 10.255 913C9.53167 913.42 8.96 914.015 8.54 914.785C8.12 915.555 7.91 916.488 7.91 917.585C7.91 918.658 8.12 919.592 8.54 920.385C8.96 921.155 9.53167 921.75 10.255 922.17C10.9783 922.59 11.795 922.8 12.705 922.8ZM32.0523 934.07C31.0723 934.07 30.104 933.918 29.1473 933.615C28.1907 933.312 27.409 932.892 26.8023 932.355L28.7973 928.47C29.2173 928.843 29.6957 929.135 30.2323 929.345C30.7923 929.555 31.3407 929.66 31.8773 929.66C32.6473 929.66 33.254 929.473 33.6973 929.1C34.164 928.75 34.584 928.155 34.9573 927.315L35.9373 925.005L36.3573 924.41L43.1123 908.17H48.3623L39.8573 928.155C39.2507 929.672 38.5507 930.862 37.7573 931.725C36.9873 932.588 36.124 933.195 35.1673 933.545C34.234 933.895 33.1957 934.07 32.0523 934.07ZM35.2723 927.735L26.8723 908.17H32.5073L39.0173 923.92L35.2723 927.735Z" fill="black"/>
<path d="M409 44L414 820" stroke="black" stroke-width="10"/>
<defs>
<radialGradient id="paint0_radial_405_102" cx="0" cy="0" r="1" gradientUnits="userSpaceOnUse" gradientTransform="translate(900.497 44) rotate(90) scale(750.588 239.395)">
<stop stop-color="#8A6E2F"/>
<stop offset="0.25" stop-color="#FEDB37"/>
<stop offset="0.953125" stop-color="#9F7928"/>
</radialGradient>
<radialGradient id="paint1_radial_405_102" cx="0" cy="0" r="1" gradientUnits="userSpaceOnUse" gradientTransform="translate(1154.48 473.027) rotate(92.2571) scale(294.95 123.261)">
<stop stop-color="#8A6E2F"/>
<stop offset="0.453125" stop-color="#FEDB37"/>
<stop offset="0.953125" stop-color="#9F7928"/>
</radialGradient>
<radialGradient id="paint2_radial_405_102" cx="0" cy="0" r="1" gradientUnits="userSpaceOnUse" gradientTransform="translate(662.606 474.244) rotate(92.2725) scale(293.794 123.614)">
<stop stop-color="#8A6E2F"/>
<stop offset="0.453125" stop-color="#FEDB37"/>
<stop offset="0.953125" stop-color="#9F7928"/>
</radialGradient>
<radialGradient id="paint3_radial_405_102" cx="0" cy="0" r="1" gradientUnits="userSpaceOnUse" gradientTransform="translate(1150.21 628.759) rotate(92.296) scale(180.175 76.5885)">
<stop stop-color="#8A6E2F"/>
<stop offset="0.453125" stop-color="#FEDB37"/>
<stop offset="0.953125" stop-color="#9F7928"/>
</radialGradient>
<radialGradient id="paint4_radial_405_102" cx="0" cy="0" r="1" gradientUnits="userSpaceOnUse" gradientTransform="translate(574.109 541.212) rotate(92.2895) scale(181.431 76.9053)">
<stop stop-color="#8A6E2F"/>
<stop offset="0.453125" stop-color="#FEDB37"/>
<stop offset="0.953125" stop-color="#9F7928"/>
</radialGradient>
<radialGradient id="paint5_radial_405_102" cx="0" cy="0" r="1" gradientUnits="userSpaceOnUse" gradientTransform="translate(1236.93 541.182) rotate(92.2453) scale(182.763 75.9781)">
<stop stop-color="#8A6E2F"/>
<stop offset="0.453125" stop-color="#FEDB37"/>
<stop offset="0.953125" stop-color="#9F7928"/>
</radialGradient>
<radialGradient id="paint6_radial_405_102" cx="0" cy="0" r="1" gradientUnits="userSpaceOnUse" gradientTransform="translate(659.175 627.041) rotate(92.2734) scale(182.799 76.9406)">
<stop stop-color="#8A6E2F"/>
<stop offset="0.453125" stop-color="#FEDB37"/>
<stop offset="0.953125" stop-color="#9F7928"/>
</radialGradient>
<radialGradient id="paint7_radial_405_102" cx="0" cy="0" r="1" gradientUnits="userSpaceOnUse" gradientTransform="translate(763.171 502.88) rotate(92.269) scale(68.3524 28.7147)">
<stop stop-color="#8A6E2F"/>
<stop offset="0.453125" stop-color="#FEDB37"/>
<stop offset="0.953125" stop-color="#9F7928"/>
</radialGradient>
<radialGradient id="paint8_radial_405_102" cx="0" cy="0" r="1" gradientUnits="userSpaceOnUse" gradientTransform="translate(1043.11 503.791) rotate(92.2646) scale(68.5899 28.7588)">
<stop stop-color="#8A6E2F"/>
<stop offset="0.453125" stop-color="#FEDB37"/>
<stop offset="0.953125" stop-color="#9F7928"/>
</radialGradient>
</defs>
</svg>
