<svg width="1770" height="537" viewBox="0 0 1770 537" fill="none" xmlns="http://www.w3.org/2000/svg">
<path d="M75.78 175.52C80.82 175.52 86.22 175.94 91.98 176.78C97.86 177.62 102.48 178.82 105.84 180.38C106.92 180.74 107.64 181.22 108 181.82C108.36 182.3 108.6 183.2 108.72 184.52L110.88 209.54C110.88 209.9 110.58 210.14 109.98 210.26C109.5 210.38 109.14 210.2 108.9 209.72C104.94 200.48 99.54 193.22 92.7 187.94C85.98 182.66 78 180.02 68.76 180.02C60.72 180.02 53.88 182.06 48.24 186.14C42.72 190.22 38.52 195.92 35.64 203.24C32.88 210.44 31.5 218.84 31.5 228.44C31.5 236.72 32.52 244.52 34.56 251.84C36.6 259.04 39.48 265.4 43.2 270.92C46.92 276.32 51.36 280.58 56.52 283.7C61.68 286.82 67.38 288.38 73.62 288.38C81.3 288.38 88.14 285.86 94.14 280.82C100.26 275.78 105.72 267.98 110.52 257.42C110.76 256.94 111.18 256.76 111.78 256.88C112.38 257 112.68 257.24 112.68 257.6L109.98 282.08C109.74 283.52 109.44 284.48 109.08 284.96C108.84 285.32 108.18 285.74 107.1 286.22C101.58 288.26 96 289.76 90.36 290.72C84.84 291.68 79.44 292.16 74.16 292.16C62.52 292.16 52.56 290.42 44.28 286.94C36 283.34 29.22 278.66 23.94 272.9C18.78 267.02 14.94 260.66 12.42 253.82C10.02 246.86 8.82 240.02 8.82 233.3C8.82 224.42 10.62 216.44 14.22 209.36C17.94 202.28 22.92 196.22 29.16 191.18C35.52 186.14 42.66 182.3 50.58 179.66C58.62 176.9 67.02 175.52 75.78 175.52ZM204.29 292.16C195.65 292.16 187.79 290.66 180.71 287.66C173.75 284.54 167.75 280.28 162.71 274.88C157.79 269.48 153.95 263.3 151.19 256.34C148.55 249.26 147.23 241.76 147.23 233.84C147.23 224.12 149.09 215.6 152.81 208.28C156.65 200.96 161.69 194.9 167.93 190.1C174.17 185.18 181.01 181.52 188.45 179.12C195.89 176.72 203.27 175.52 210.59 175.52C219.47 175.52 227.39 177.14 234.35 180.38C241.43 183.5 247.43 187.76 252.35 193.16C257.27 198.56 260.99 204.68 263.51 211.52C266.15 218.36 267.47 225.38 267.47 232.58C267.47 240.98 265.79 248.78 262.43 255.98C259.07 263.18 254.45 269.48 248.57 274.88C242.81 280.28 236.09 284.54 228.41 287.66C220.85 290.66 212.81 292.16 204.29 292.16ZM210.23 287.66C216.95 287.66 222.95 285.74 228.23 281.9C233.51 278.06 237.65 272.42 240.65 264.98C243.77 257.54 245.33 248.48 245.33 237.8C245.33 226.76 243.65 216.92 240.29 208.28C236.93 199.64 232.13 192.86 225.89 187.94C219.65 182.9 212.15 180.38 203.39 180.38C192.47 180.38 184.07 184.52 178.19 192.8C172.31 201.08 169.37 212.54 169.37 227.18C169.37 235.94 170.39 244.04 172.43 251.48C174.47 258.8 177.29 265.22 180.89 270.74C184.61 276.14 188.93 280.34 193.85 283.34C198.89 286.22 204.35 287.66 210.23 287.66ZM317.083 267.14V181.64L322.483 182V267.14C322.483 273.5 323.803 278.54 326.443 282.26C329.083 285.98 332.743 287.84 337.423 287.84C337.663 287.84 337.783 288.2 337.783 288.92C337.783 289.64 337.663 290 337.423 290C334.783 290 332.023 289.94 329.143 289.82C326.383 289.7 323.323 289.64 319.963 289.64C316.363 289.64 312.823 289.7 309.343 289.82C305.983 289.94 302.863 290 299.983 290C299.623 290 299.443 289.64 299.443 288.92C299.443 288.2 299.623 287.84 299.983 287.84C305.263 287.84 309.403 285.98 312.403 282.26C315.523 278.54 317.083 273.5 317.083 267.14ZM408.883 292.7C408.883 293.06 408.583 293.24 407.983 293.24C407.503 293.36 407.143 293.36 406.903 293.24L318.163 192.26C313.843 187.34 310.183 184.04 307.183 182.36C304.183 180.56 301.183 179.66 298.183 179.66C297.943 179.66 297.823 179.3 297.823 178.58C297.823 177.86 297.943 177.5 298.183 177.5C300.583 177.5 303.043 177.56 305.563 177.68C308.083 177.8 310.423 177.86 312.583 177.86C316.903 177.86 320.803 177.8 324.283 177.68C327.763 177.56 330.463 177.5 332.383 177.5C333.943 177.5 335.083 178.22 335.803 179.66C336.643 180.98 338.503 183.38 341.383 186.86L407.443 263L408.883 292.7ZM408.883 200.54V292.7L403.663 287.3V200.54C403.663 194.18 402.343 189.14 399.703 185.42C397.063 181.58 393.403 179.66 388.723 179.66C388.483 179.66 388.363 179.3 388.363 178.58C388.363 177.86 388.483 177.5 388.723 177.5C391.363 177.5 394.063 177.62 396.823 177.86C399.703 177.98 402.823 178.04 406.183 178.04C409.423 178.04 412.603 177.98 415.723 177.86C418.843 177.62 421.723 177.5 424.363 177.5C424.603 177.5 424.723 177.86 424.723 178.58C424.723 179.3 424.603 179.66 424.363 179.66C419.563 179.66 415.783 181.58 413.023 185.42C410.263 189.14 408.883 194.18 408.883 200.54ZM520.366 175.52C525.406 175.52 530.806 175.94 536.566 176.78C542.446 177.62 547.066 178.82 550.426 180.38C551.506 180.74 552.226 181.22 552.586 181.82C552.946 182.3 553.186 183.2 553.306 184.52L555.466 209.54C555.466 209.9 555.166 210.14 554.566 210.26C554.086 210.38 553.726 210.2 553.486 209.72C549.526 200.48 544.126 193.22 537.286 187.94C530.566 182.66 522.586 180.02 513.346 180.02C505.306 180.02 498.466 182.06 492.826 186.14C487.306 190.22 483.106 195.92 480.226 203.24C477.466 210.44 476.086 218.84 476.086 228.44C476.086 236.72 477.106 244.52 479.146 251.84C481.186 259.04 484.066 265.4 487.786 270.92C491.506 276.32 495.946 280.58 501.106 283.7C506.266 286.82 511.966 288.38 518.206 288.38C525.886 288.38 532.726 285.86 538.726 280.82C544.846 275.78 550.306 267.98 555.106 257.42C555.346 256.94 555.766 256.76 556.366 256.88C556.966 257 557.266 257.24 557.266 257.6L554.566 282.08C554.326 283.52 554.026 284.48 553.666 284.96C553.426 285.32 552.766 285.74 551.686 286.22C546.166 288.26 540.586 289.76 534.946 290.72C529.426 291.68 524.026 292.16 518.746 292.16C507.106 292.16 497.146 290.42 488.866 286.94C480.586 283.34 473.806 278.66 468.526 272.9C463.366 267.02 459.526 260.66 457.006 253.82C454.606 246.86 453.406 240.02 453.406 233.3C453.406 224.42 455.206 216.44 458.806 209.36C462.526 202.28 467.506 196.22 473.746 191.18C480.106 186.14 487.246 182.3 495.166 179.66C503.206 176.9 511.606 175.52 520.366 175.52ZM623.856 275.42C623.856 278.9 624.156 281.54 624.756 283.34C625.356 285.14 626.556 286.34 628.356 286.94C630.156 287.54 632.916 287.84 636.636 287.84C636.996 287.84 637.176 288.2 637.176 288.92C637.176 289.64 636.996 290 636.636 290C633.516 290 630.036 289.94 626.196 289.82C622.356 289.7 618.156 289.64 613.596 289.64C609.276 289.64 605.136 289.7 601.176 289.82C597.216 289.94 593.676 290 590.556 290C590.316 290 590.196 289.64 590.196 288.92C590.196 288.2 590.316 287.84 590.556 287.84C594.276 287.84 597.036 287.54 598.836 286.94C600.756 286.34 602.016 285.14 602.616 283.34C603.336 281.54 603.696 278.9 603.696 275.42V192.08C603.696 188.6 603.336 186.02 602.616 184.34C602.016 182.54 600.756 181.34 598.836 180.74C597.036 180.02 594.276 179.66 590.556 179.66C590.316 179.66 590.196 179.3 590.196 178.58C590.196 177.86 590.316 177.5 590.556 177.5C593.676 177.5 597.216 177.62 601.176 177.86C605.136 177.98 609.276 178.04 613.596 178.04C618.156 178.04 622.356 177.98 626.196 177.86C630.156 177.62 633.636 177.5 636.636 177.5C636.996 177.5 637.176 177.86 637.176 178.58C637.176 179.3 636.996 179.66 636.636 179.66C633.036 179.66 630.276 180.02 628.356 180.74C626.556 181.46 625.356 182.72 624.756 184.52C624.156 186.32 623.856 188.96 623.856 192.44V275.42ZM749.46 290H669.9C669.54 290 669.36 289.64 669.36 288.92C669.36 288.2 669.54 287.84 669.9 287.84C673.62 287.84 676.38 287.54 678.18 286.94C679.98 286.34 681.18 285.14 681.78 283.34C682.38 281.54 682.68 278.9 682.68 275.42V192.08C682.68 188.6 682.38 186.02 681.78 184.34C681.18 182.54 679.98 181.34 678.18 180.74C676.38 180.02 673.62 179.66 669.9 179.66C669.54 179.66 669.36 179.3 669.36 178.58C669.36 177.86 669.54 177.5 669.9 177.5H746.22C747.42 177.5 748.02 178.04 748.02 179.12L748.38 203.06C748.38 203.3 748.08 203.48 747.48 203.6C746.88 203.72 746.46 203.6 746.22 203.24C744.3 196.16 741.06 191 736.5 187.76C731.94 184.4 725.94 182.72 718.5 182.72H713.1C710.7 182.72 708.72 183.08 707.16 183.8C705.6 184.4 704.46 185.42 703.74 186.86C703.02 188.3 702.66 190.1 702.66 192.26V274.7C702.66 276.98 702.96 278.9 703.56 280.46C704.16 282.02 705.06 283.16 706.26 283.88C707.46 284.6 709.02 284.96 710.94 284.96H716.88C726.24 284.96 733.74 283.04 739.38 279.2C745.02 275.36 749.16 269.42 751.8 261.38C751.92 261.02 752.28 260.96 752.88 261.2C753.6 261.32 753.96 261.5 753.96 261.74C753.48 265.22 753.06 269.36 752.7 274.16C752.34 278.84 752.16 283.22 752.16 287.3C752.16 289.1 751.26 290 749.46 290ZM739.38 249.86C739.38 244.94 737.52 241.1 733.8 238.34C730.08 235.46 724.62 234.02 717.42 234.02H693.12V228.98H717.6C724.68 228.98 730.02 227.78 733.62 225.38C737.34 222.86 739.2 219.5 739.2 215.3C739.2 214.94 739.5 214.76 740.1 214.76C740.82 214.76 741.18 214.94 741.18 215.3C741.18 219.26 741.12 222.38 741 224.66C741 226.82 741 229.1 741 231.5C741 234.5 741.06 237.44 741.18 240.32C741.42 243.2 741.54 246.38 741.54 249.86C741.54 250.1 741.18 250.22 740.46 250.22C739.74 250.22 739.38 250.1 739.38 249.86ZM875.236 290C873.436 290 870.496 287.66 866.416 282.98C862.456 278.3 857.656 271.58 852.016 262.82C846.376 253.94 840.016 243.38 832.936 231.14L849.496 225.92C859.096 241.04 867.256 253.16 873.976 262.28C880.816 271.28 886.876 277.82 892.156 281.9C897.436 285.86 902.476 287.84 907.276 287.84C907.516 287.84 907.636 288.2 907.636 288.92C907.636 289.64 907.516 290 907.276 290C898.876 290 892.036 290 886.756 290C881.476 290 877.636 290 875.236 290ZM834.196 176.96C845.236 176.96 853.756 179 859.756 183.08C865.876 187.04 868.936 192.62 868.936 199.82C868.936 204.38 867.796 208.7 865.516 212.78C863.356 216.86 860.416 220.52 856.696 223.76C853.096 226.88 848.956 229.34 844.276 231.14C839.716 232.94 835.036 233.84 830.236 233.84C828.556 233.84 826.816 233.84 825.016 233.84C823.336 233.84 821.776 233.78 820.336 233.66V275.42C820.336 278.9 820.636 281.54 821.236 283.34C821.836 285.14 823.036 286.34 824.836 286.94C826.636 287.54 829.396 287.84 833.116 287.84C833.356 287.84 833.476 288.2 833.476 288.92C833.476 289.64 833.356 290 833.116 290C829.996 290 826.516 289.94 822.676 289.82C818.836 289.7 814.636 289.64 810.076 289.64C805.756 289.64 801.616 289.7 797.656 289.82C793.816 289.94 790.336 290 787.216 290C786.856 290 786.676 289.64 786.676 288.92C786.676 288.2 786.856 287.84 787.216 287.84C790.936 287.84 793.696 287.54 795.496 286.94C797.296 286.34 798.496 285.14 799.096 283.34C799.816 281.54 800.176 278.9 800.176 275.42V192.08C800.176 188.6 799.876 186.02 799.276 184.34C798.676 182.54 797.476 181.34 795.676 180.74C793.876 180.02 791.116 179.66 787.396 179.66C787.156 179.66 787.036 179.3 787.036 178.58C787.036 177.86 787.156 177.5 787.396 177.5C790.516 177.5 793.996 177.62 797.836 177.86C801.676 177.98 805.756 178.04 810.076 178.04C813.676 178.04 817.576 177.86 821.776 177.5C826.096 177.14 830.236 176.96 834.196 176.96ZM848.236 206.66C848.236 199.58 847.516 194.18 846.076 190.46C844.636 186.74 842.656 184.22 840.136 182.9C837.616 181.46 834.736 180.74 831.496 180.74C828.736 180.74 826.516 181.16 824.836 182C823.276 182.72 822.136 183.98 821.416 185.78C820.696 187.46 820.336 189.68 820.336 192.44V228.44C822.016 228.68 823.816 228.86 825.736 228.98C827.656 229.1 829.336 229.16 830.776 229.16C837.136 229.16 841.636 227.6 844.276 224.48C846.916 221.36 848.236 215.42 848.236 206.66ZM988.702 292.16C975.142 292.16 963.502 289.64 953.782 284.6C944.062 279.44 936.622 272.54 931.462 263.9C926.422 255.14 923.902 245.48 923.902 234.92C923.902 226.04 925.582 218 928.942 210.8C932.422 203.48 937.222 197.24 943.342 192.08C949.582 186.8 956.842 182.72 965.122 179.84C973.402 176.96 982.402 175.52 992.122 175.52C997.522 175.52 1003.1 175.94 1008.86 176.78C1014.74 177.62 1019.48 178.82 1023.08 180.38C1024.16 180.74 1024.82 181.22 1025.06 181.82C1025.42 182.3 1025.66 183.2 1025.78 184.52L1028.12 209.54C1028.12 209.9 1027.82 210.14 1027.22 210.26C1026.62 210.38 1026.2 210.2 1025.96 209.72C1021.88 200.6 1016.12 193.46 1008.68 188.3C1001.36 183.02 992.902 180.38 983.302 180.38C970.822 180.38 961.402 184.76 955.042 193.52C948.802 202.16 945.682 213.68 945.682 228.08C945.682 240.2 947.722 250.88 951.802 260.12C956.002 269.24 961.642 276.38 968.722 281.54C975.922 286.58 984.082 289.1 993.202 289.1C997.762 289.1 1001.42 288.56 1004.18 287.48C1006.94 286.4 1008.92 284.3 1010.12 281.18C1011.44 278.06 1012.1 273.44 1012.1 267.32C1012.1 261.56 1011.74 257.36 1011.02 254.72C1010.42 251.96 1008.86 250.16 1006.34 249.32C1003.82 248.48 999.802 248.06 994.282 248.06C993.562 248.06 993.202 247.58 993.202 246.62C993.202 245.66 993.502 245.18 994.102 245.18C1002.38 245.66 1009.88 245.96 1016.6 246.08C1023.32 246.08 1030.4 245.9 1037.84 245.54C1038.44 245.54 1038.74 245.96 1038.74 246.8C1038.74 247.64 1038.44 248.06 1037.84 248.06C1035.8 247.94 1034.3 248.36 1033.34 249.32C1032.5 250.16 1031.96 252.08 1031.72 255.08C1031.48 258.08 1031.36 262.76 1031.36 269.12C1031.36 273.08 1031.48 276.02 1031.72 277.94C1031.96 279.86 1032.14 281.3 1032.26 282.26C1032.5 283.1 1032.62 284 1032.62 284.96C1032.62 285.68 1032.44 286.16 1032.08 286.4C1031.84 286.64 1031.3 286.88 1030.46 287.12C1023.86 288.56 1016.9 289.76 1009.58 290.72C1002.38 291.68 995.422 292.16 988.702 292.16ZM1149.4 290H1069.84C1069.48 290 1069.3 289.64 1069.3 288.92C1069.3 288.2 1069.48 287.84 1069.84 287.84C1073.56 287.84 1076.32 287.54 1078.12 286.94C1079.92 286.34 1081.12 285.14 1081.72 283.34C1082.32 281.54 1082.62 278.9 1082.62 275.42V192.08C1082.62 188.6 1082.32 186.02 1081.72 184.34C1081.12 182.54 1079.92 181.34 1078.12 180.74C1076.32 180.02 1073.56 179.66 1069.84 179.66C1069.48 179.66 1069.3 179.3 1069.3 178.58C1069.3 177.86 1069.48 177.5 1069.84 177.5H1146.16C1147.36 177.5 1147.96 178.04 1147.96 179.12L1148.32 203.06C1148.32 203.3 1148.02 203.48 1147.42 203.6C1146.82 203.72 1146.4 203.6 1146.16 203.24C1144.24 196.16 1141 191 1136.44 187.76C1131.88 184.4 1125.88 182.72 1118.44 182.72H1113.04C1110.64 182.72 1108.66 183.08 1107.1 183.8C1105.54 184.4 1104.4 185.42 1103.68 186.86C1102.96 188.3 1102.6 190.1 1102.6 192.26V274.7C1102.6 276.98 1102.9 278.9 1103.5 280.46C1104.1 282.02 1105 283.16 1106.2 283.88C1107.4 284.6 1108.96 284.96 1110.88 284.96H1116.82C1126.18 284.96 1133.68 283.04 1139.32 279.2C1144.96 275.36 1149.1 269.42 1151.74 261.38C1151.86 261.02 1152.22 260.96 1152.82 261.2C1153.54 261.32 1153.9 261.5 1153.9 261.74C1153.42 265.22 1153 269.36 1152.64 274.16C1152.28 278.84 1152.1 283.22 1152.1 287.3C1152.1 289.1 1151.2 290 1149.4 290ZM1139.32 249.86C1139.32 244.94 1137.46 241.1 1133.74 238.34C1130.02 235.46 1124.56 234.02 1117.36 234.02H1093.06V228.98H1117.54C1124.62 228.98 1129.96 227.78 1133.56 225.38C1137.28 222.86 1139.14 219.5 1139.14 215.3C1139.14 214.94 1139.44 214.76 1140.04 214.76C1140.76 214.76 1141.12 214.94 1141.12 215.3C1141.12 219.26 1141.06 222.38 1140.94 224.66C1140.94 226.82 1140.94 229.1 1140.94 231.5C1140.94 234.5 1141 237.44 1141.12 240.32C1141.36 243.2 1141.48 246.38 1141.48 249.86C1141.48 250.1 1141.12 250.22 1140.4 250.22C1139.68 250.22 1139.32 250.1 1139.32 249.86Z" fill="black"/>
<path d="M964.158 381.267C971.509 381.267 976.099 375.756 976.099 366.579C976.099 356.245 971.666 350.745 964.235 350.745C956.349 350.745 952.367 355.718 952.367 365.737C952.367 375.832 956.735 381.267 964.158 381.267ZM946.02 331H952.598V351.579C955.664 347.076 960.031 344.696 965.533 344.696C975.947 344.696 983.147 352.81 983.147 366.117C983.147 379.201 976.099 387.231 965.615 387.231C960.107 387.231 955.968 385.316 952.598 380.968V386.009H946.02V331" fill="black"/>
<path d="M1007.18 381.267C1014.99 381.267 1019.35 375.913 1019.35 365.968C1019.35 356.022 1014.99 350.669 1007.18 350.669C999.225 350.669 994.85 356.022 994.85 365.968C994.85 375.913 999.298 381.267 1007.18 381.267V381.267ZM1007.11 344.696C1019.2 344.696 1026.32 352.421 1026.32 365.968C1026.32 379.514 1019.2 387.231 1007.18 387.231C995.081 387.231 987.967 379.514 987.967 365.968C987.967 352.421 995.081 344.696 1007.11 344.696Z" fill="black"/>
<path d="M1050.13 381.267C1057.47 381.267 1062.06 375.756 1062.06 366.579C1062.06 356.245 1057.64 350.745 1050.2 350.745C1042.32 350.745 1038.34 355.718 1038.34 365.737C1038.34 375.832 1042.7 381.267 1050.13 381.267V381.267ZM1031.99 331H1038.57V351.579C1041.63 347.076 1046.01 344.696 1051.5 344.696C1061.92 344.696 1069.12 352.81 1069.12 366.117C1069.12 379.201 1062.06 387.231 1051.59 387.231C1046.07 387.231 1041.93 385.316 1038.57 380.968V386.009H1031.99V331" fill="black"/>
<path d="M1092.53 381.267C1100.34 381.267 1104.71 375.913 1104.71 365.968C1104.71 356.022 1100.34 350.669 1092.53 350.669C1084.58 350.669 1080.2 356.022 1080.2 365.968C1080.2 375.913 1084.66 381.267 1092.53 381.267V381.267ZM1092.46 344.696C1104.56 344.696 1111.68 352.421 1111.68 365.968C1111.68 379.514 1104.56 387.231 1092.53 387.231C1080.43 387.231 1073.33 379.514 1073.33 365.968C1073.33 352.421 1080.43 344.696 1092.46 344.696Z" fill="black"/>
<path d="M1117.57 345.994H1124.31V386.008H1117.57V345.994ZM1117.57 331H1124.31V338.657H1117.57V331Z" fill="black"/>
<path d="M1135.86 373.005C1136.32 378.435 1139.76 381.266 1146.04 381.266C1151.93 381.266 1155.38 378.739 1155.38 374.907C1155.38 371.551 1153.39 370.478 1149.26 369.478L1141.75 367.57C1133.87 365.655 1130.42 362.978 1130.42 356.326C1130.42 349.44 1135.86 344.771 1145.43 344.771C1154.99 344.771 1161.04 349.595 1161.04 357.021V357.168H1154.45C1154.22 352.956 1150.87 350.505 1145.43 350.505C1140 350.505 1137.16 352.502 1137.16 356.089C1137.16 359.005 1139.14 360.07 1143.44 361.076L1149.94 362.598C1158.13 364.505 1162.12 367.032 1162.12 374.065C1162.12 382.258 1156.15 387.223 1145.43 387.223C1135.17 387.223 1129.51 382.176 1129.35 373.005" fill="black"/>
<path d="M717 345.484H731.938V352.91C734.079 346.946 737.978 344.419 744.565 344.419H746.022V360.56C744.794 360.411 743.726 360.329 742.728 360.329C736.22 360.329 733.242 363.169 733.242 369.432V386.117H717" fill="black"/>
<path d="M770.979 376.32C775.873 376.32 777.707 372.964 777.707 365.763C777.707 358.57 775.873 355.274 770.979 355.274C766.076 355.274 764.318 358.57 764.318 365.763C764.318 372.964 766.076 376.32 770.979 376.32ZM770.979 344.038C785.288 344.038 793.944 352.298 793.944 365.763C793.944 379.228 785.288 387.57 770.979 387.57C756.655 387.57 748.006 379.228 748.006 365.763C748.006 352.298 756.655 344.038 770.979 344.038Z" fill="black"/>
<path d="M842.014 370.282C841.321 380.913 833.055 387.57 819.962 387.57C805.421 387.57 796.617 379.078 796.617 365.763C796.617 352.298 805.421 344.032 819.818 344.032C833.055 344.032 841.479 350.771 841.862 360.94H825.707C825.403 357.114 823.49 355.274 819.739 355.274C814.989 355.274 812.924 358.644 812.924 365.763C812.924 372.964 814.908 376.32 819.587 376.32C823.332 376.32 825.479 374.255 825.865 370.282" fill="black"/>
<path d="M846.074 331.109H862.227V349.848C865.518 346.253 869.645 344.419 874.703 344.419C879.909 344.419 883.816 346.022 886.575 349.31C889.635 352.984 889.947 357.957 889.947 364.995V386.117H873.781V365.071C873.781 359.487 872.716 356.959 868.275 356.959C864.216 356.959 862.227 359.636 862.227 365.152V386.117H846.074" fill="black"/>
<path d="M924.156 361.252C923.854 356.206 921.401 353.671 916.805 353.671C912.596 353.671 909.998 356.429 909.756 361.252H924.156ZM938.781 374.097C936.561 382.902 928.898 387.57 916.349 387.57C902.267 387.57 893.609 379.078 893.609 366.144C893.609 352.521 902.487 344.032 916.96 344.032C931.357 344.032 940.083 353.059 940.083 368.364V369.35H909.756C909.914 374.559 912.596 377.467 917.267 377.467C920.406 377.467 922.544 376.244 923.314 374.097H938.781" fill="black"/>
<path d="M1036.7 404.459C1038.1 404.459 1038.75 403.897 1038.75 402.538C1038.75 401.288 1038.11 400.62 1036.85 400.62H1034.03V404.459H1036.7ZM1034.03 411.579H1031.3V398.31H1037.21C1040.02 398.31 1041.46 399.794 1041.46 402.571C1041.46 405.31 1040.02 406.859 1037.4 406.859H1034.03V411.579" fill="black"/>
<path d="M1065.92 406.62H1069.61L1067.76 400.968L1065.92 406.62ZM1069.33 398.31L1074.12 411.579H1071.25L1070.35 408.848H1065.2L1064.33 411.579H1061.45L1066.18 398.31H1069.33" fill="black"/>
<path d="M1100.62 404.098C1102.01 404.098 1102.65 403.563 1102.65 402.348C1102.65 401.207 1102.03 400.593 1100.76 400.593H1097.42V404.098H1100.62ZM1094.69 398.318H1101.13C1104.01 398.318 1105.39 399.514 1105.39 402.068C1105.39 403.699 1104.69 404.805 1103.42 405.207C1104.66 405.655 1105 406.498 1105.06 408.109L1105.11 409.677C1105.13 410.451 1105.13 410.913 1105.62 411.163V411.579H1102.64C1102.44 411.191 1102.34 410.636 1102.32 409.913L1102.29 408.517C1102.23 406.951 1101.82 406.408 1100.31 406.408H1097.42V411.579H1094.69V398.318Z" fill="black"/>
<path d="M1127.16 411.579H1129.89V398.318H1127.16V411.579Z" fill="black"/>
<path d="M1154.02 407.489C1154.22 408.956 1155.22 409.622 1157.04 409.622C1158.65 409.622 1159.46 409.051 1159.46 407.937C1159.46 406.728 1158.33 406.483 1155.9 405.934C1154.84 405.695 1153.84 405.505 1152.97 404.956C1152.02 404.364 1151.53 403.331 1151.53 401.945C1151.53 399.377 1153.3 397.951 1156.64 397.951C1159.76 397.951 1161.57 399.494 1161.66 402.149H1159.04C1158.95 400.858 1158.04 400.173 1156.4 400.173C1154.96 400.173 1154.17 400.763 1154.17 401.782C1154.17 403.032 1155.18 403.032 1157.38 403.589C1158.63 403.896 1159.67 404.16 1160.5 404.622C1161.59 405.228 1162.13 406.225 1162.13 407.592C1162.13 410.328 1160.23 411.945 1156.79 411.945C1153.41 411.945 1151.47 410.315 1151.32 407.489" fill="black"/>
<path d="M669.65 386.28C667.993 386.28 666.57 385.93 665.38 385.23C664.19 384.53 663.28 383.468 662.65 382.045C662.02 380.598 661.705 378.778 661.705 376.585C661.705 374.368 662.032 372.548 662.685 371.125C663.362 369.702 664.295 368.64 665.485 367.94C666.675 367.24 668.063 366.89 669.65 366.89C671.423 366.89 673.01 367.287 674.41 368.08C675.833 368.873 676.953 369.993 677.77 371.44C678.61 372.887 679.03 374.602 679.03 376.585C679.03 378.545 678.61 380.248 677.77 381.695C676.953 383.142 675.833 384.273 674.41 385.09C673.01 385.883 671.423 386.28 669.65 386.28ZM658.52 386V360.03H663.98V370.985L663.63 376.55L663.735 382.15V386H658.52ZM668.705 381.8C669.615 381.8 670.42 381.59 671.12 381.17C671.843 380.75 672.415 380.155 672.835 379.385C673.278 378.592 673.5 377.658 673.5 376.585C673.5 375.488 673.278 374.555 672.835 373.785C672.415 373.015 671.843 372.42 671.12 372C670.42 371.58 669.615 371.37 668.705 371.37C667.795 371.37 666.978 371.58 666.255 372C665.532 372.42 664.96 373.015 664.54 373.785C664.12 374.555 663.91 375.488 663.91 376.585C663.91 377.658 664.12 378.592 664.54 379.385C664.96 380.155 665.532 380.75 666.255 381.17C666.978 381.59 667.795 381.8 668.705 381.8ZM688.052 393.07C687.072 393.07 686.104 392.918 685.147 392.615C684.191 392.312 683.409 391.892 682.802 391.355L684.797 387.47C685.217 387.843 685.696 388.135 686.232 388.345C686.792 388.555 687.341 388.66 687.877 388.66C688.647 388.66 689.254 388.473 689.697 388.1C690.164 387.75 690.584 387.155 690.957 386.315L691.937 384.005L692.357 383.41L699.112 367.17H704.362L695.857 387.155C695.251 388.672 694.551 389.862 693.757 390.725C692.987 391.588 692.124 392.195 691.167 392.545C690.234 392.895 689.196 393.07 688.052 393.07ZM691.272 386.735L682.872 367.17H688.507L695.017 382.92L691.272 386.735Z" fill="black"/>
<path d="M1699.09 12.4385C1713.12 1.20948 1724 0.190238 1732.67 9.42391C1741.34 18.6576 1740.18 29.6965 1728.66 42.0829C1729.44 42.6962 1730.19 43.3095 1730.97 43.8882C1740.08 50.7983 1743.47 60.5676 1740.44 71.4597C1739.13 76.1672 1737.92 80.9611 1736.33 85.5477C1733.66 93.3216 1735.19 100.854 1737.57 108.377C1738.74 112.074 1739.88 115.805 1740.76 119.606C1743.39 130.93 1738.68 141.693 1728.8 147.342C1718.48 153.25 1706.52 151.98 1697.84 143.584C1684.94 131.094 1672.26 118.379 1659.5 105.743C1657.75 104.015 1656.1 102.106 1653.9 106.546C1662.21 114.544 1670.76 122.75 1679.26 130.99C1684.34 135.931 1689.42 140.889 1694.4 145.934C1703.25 154.925 1704.89 166.396 1698.85 176.779C1692.81 187.161 1682.1 191.601 1669.73 188.63C1665.91 187.714 1662.09 186.738 1658.36 185.468C1650.22 182.532 1641.29 182.532 1633.14 185.468C1629.9 186.755 1626.52 187.69 1623.07 188.258C1618.22 188.874 1613.32 189.094 1608.44 188.915C1595.46 188.422 1582.51 188.051 1569.75 191.031C1568.6 191.417 1567.57 192.114 1566.79 193.043C1564.17 195.825 1561.82 198.865 1559.03 201.457C1558.51 201.932 1556.03 201.206 1555.21 200.342C1553.18 198.2 1551.44 198.002 1549.32 199.988C1545.52 203.53 1541.39 206.769 1537.95 210.638C1534.72 214.301 1533.23 218.663 1537.8 223.439L1506.12 254.069L1587.56 334.278L1565.21 355.725L1484.44 275.542L1402.83 356.468C1395.57 349.014 1388.73 341.991 1381.53 334.606L1463.34 254.233C1454.99 246.243 1447.26 238.849 1439.54 231.447C1438.08 230.039 1436.65 228.605 1435.17 227.18C1433 225.055 1430.31 223.56 1433.03 219.492C1434.09 217.903 1432.79 213.549 1431.14 211.649C1427.2 207.123 1422.51 203.201 1417.9 199.306C1417.23 198.753 1414.81 199.228 1414.02 200.023C1411.67 202.364 1409.99 202.856 1407.84 199.79C1405.92 197.204 1403.82 194.765 1401.53 192.491C1400.72 191.715 1399.7 191.187 1398.6 190.97C1385.08 188.129 1371.5 188.379 1357.75 189.157C1351.7 189.511 1345.44 187.792 1339.4 186.444C1331.76 184.717 1324.35 181.633 1316.29 183.801C1310.12 185.46 1303.98 187.256 1297.77 188.794C1292.52 190.156 1286.95 189.768 1281.94 187.689C1276.93 185.611 1272.75 181.958 1270.05 177.297C1264.07 167.2 1264.88 155.703 1272.89 147.342C1283.13 136.717 1293.79 126.482 1304.3 116.116C1307.7 112.774 1311.2 109.543 1314.65 106.269C1312.9 102.728 1311.38 103.402 1309.31 105.458C1296.6 118.129 1283.87 130.8 1271 143.308C1257.01 156.843 1233.91 151.419 1228.41 133.081C1227.07 128.624 1227.92 123.467 1228.16 118.647C1228.4 116.353 1229.02 114.114 1230 112.022C1235.02 99.9294 1234.04 87.9317 1229.47 75.8908C1226.85 69.0325 1225.49 61.6818 1228.99 54.884C1231.54 50.0987 1235.51 45.9958 1239.12 41.1846C1233.37 36.8658 1229.6 30.6207 1230.15 22.3113C1230.47 17.2223 1232.75 12.4461 1236.5 8.94883C1245.45 0.311165 1255.73 1.42542 1269.72 12.7235C1274.09 6.4871 1279.6 1.93505 1287.38 0.483919C1294.15 -0.785819 1300.33 1.52044 1306.61 3.24797C1314.17 5.32101 1321.65 8.12826 1329.7 5.91701C1334.74 4.54362 1339.78 3.11841 1344.81 1.67592C1361.04 -2.97115 1374.99 4.40542 1379.01 20.0914C1381.36 29.2301 1378.45 37.1595 1371.84 43.75C1359.4 56.1451 1346.91 68.4106 1334.5 80.7451C1333.49 81.7385 1332.52 82.7836 1331.56 83.777C1333.31 87.638 1335.06 85.8846 1336.81 84.157C1349.37 71.7361 1361.94 59.3266 1374.52 46.9287C1383.71 37.8937 1395.74 36.2871 1406.43 42.6098C1416.76 48.6735 1421.04 59.9543 1417.55 72.0988C1416.16 76.9446 1414.87 81.8076 1413.43 86.636C1411.62 92.1635 1411.67 98.124 1413.59 103.618C1417.87 115.451 1419.71 127.509 1417.96 140.051C1417.63 143.497 1417.58 146.964 1417.83 150.417C1418.22 162.509 1418.4 174.654 1431.74 180.381C1431.49 181.65 1431.54 182.108 1431.32 182.445C1427.37 187.887 1427.16 188.06 1431.81 193.199C1435 196.699 1438.53 199.881 1442.36 202.7C1445.48 205.007 1449.12 205.49 1452.59 201.457L1484.06 233.459L1515.67 201.396C1520.37 206.035 1524.66 204.385 1528.23 201.396C1532.17 198.071 1535.47 193.994 1539.05 190.254C1541.11 188.111 1541.4 186.116 1538.78 184.129C1538 183.542 1537.5 182.601 1536.38 181.193C1540.03 178.221 1543.8 175.518 1547.05 172.313C1548.32 171.069 1548.89 168.711 1549 166.811C1549.64 155.91 1550.87 144.958 1550.29 134.109C1549.8 125.246 1550.64 116.885 1553.7 108.714C1557.26 99.2125 1556.99 89.8924 1553.5 80.486C1552.36 77.3851 1551.57 74.1546 1550.71 70.9846C1549.18 65.5966 1549.52 59.8569 1551.68 54.6812C1553.83 49.5055 1557.68 45.1919 1562.6 42.4284C1572.93 36.5376 1585.01 37.98 1593.53 46.3154C1606.47 58.984 1619.35 71.6929 1632.16 84.4421C1634.13 86.3942 1635.56 87.1284 1637.41 83.3451C1632.9 79.0867 1628.12 74.7074 1623.48 70.164C1614.67 61.5666 1605.91 52.929 1597.19 44.251C1588.09 35.216 1586.39 23.8661 1592.47 13.1554C1598.35 2.79018 1609.2 -1.6755 1621.54 1.29586C1623.26 1.61146 1624.95 2.04439 1626.6 2.59151C1639.22 7.54089 1651.53 6.78942 1664.5 2.83336C1682.12 -2.59109 1686.72 -0.664892 1699.09 12.4385ZM1629.58 95.671C1614.29 80.3305 1600.12 65.9056 1585.59 51.8262C1581.08 47.4469 1575.16 47.0755 1569.26 49.5113C1560.52 53.1305 1556.93 61.2845 1560.87 71.9175C1566.59 87.353 1567.04 102.46 1560.78 117.697C1560.51 118.515 1560.3 119.352 1560.15 120.202C1558.02 128.943 1560.52 135.413 1567.58 139.455C1574.48 143.42 1581.47 142.237 1588.09 135.784C1596.58 127.501 1604.94 119.079 1613.44 110.804C1618.72 105.691 1624.16 100.741 1629.58 95.671V95.671ZM1307.13 95.8783L1306.12 94.8764C1306.04 94.6086 1306.04 94.2631 1305.86 94.0817C1291.66 80.0455 1277.62 65.8624 1263.23 52.0249C1257.68 46.6868 1249.41 46.8423 1243.16 51.4807C1236.71 56.266 1235.23 62.511 1238.2 72.4184C1241.64 83.8806 1245.54 95.2564 1241.16 107.418C1239.68 111.778 1238.43 116.209 1237.4 120.694C1235.29 129.09 1237.97 135.586 1244.98 139.455C1251.99 143.325 1258.9 142.202 1265.17 136.044C1275.81 125.601 1286.35 115.063 1297.03 104.663C1300.22 101.562 1303.75 98.8065 1307.13 95.8783ZM1646.04 110.39C1631.53 124.771 1617.74 138.393 1604 152.023C1597.89 158.07 1596.77 165.748 1600.81 172.434C1604.84 179.12 1611.91 181.469 1620.54 179.266C1628.55 177.228 1636.66 174.084 1644.72 174.153C1653.37 174.196 1662.06 177.15 1670.63 179.258C1679.44 181.426 1686.51 179.163 1690.68 172.201C1694.6 165.645 1693.26 157.854 1687.18 151.807C1677.94 142.651 1668.62 133.539 1659.41 124.331C1654.91 119.882 1650.63 115.218 1646.04 110.407V110.39ZM1339.54 94.4013C1354.4 109.319 1368.51 123.83 1383.05 137.918C1388.48 143.187 1396.59 142.885 1402.72 138.341C1409.31 133.452 1411.24 127.285 1407.71 117.473C1402.47 102.97 1401.2 88.6745 1407.21 74.146C1407.79 72.5184 1408.25 70.853 1408.59 69.162C1410.73 60.8526 1408.12 54.3484 1401.08 50.3751C1394.26 46.5227 1387.14 47.5333 1381.18 53.3724C1371.36 63.0552 1361.6 72.7208 1351.85 82.3777C1347.75 86.4287 1343.62 90.4366 1339.54 94.4186V94.4013ZM1322.93 79.5186C1328.97 73.3513 1334.37 67.7368 1339.88 62.2433C1348.38 53.7611 1357.03 45.4171 1365.49 36.9003C1368 34.4526 1369.63 31.253 1370.11 27.7992C1370.59 24.3454 1369.9 20.831 1368.16 17.8024C1366.55 14.787 1363.98 12.3793 1360.85 10.9521C1357.72 9.52486 1354.19 9.15776 1350.83 9.90762C1346.7 10.7736 1342.61 11.849 1338.59 13.1295C1330.01 15.7812 1321.39 17.2755 1312.49 14.5633C1306.94 12.8358 1301.33 11.2551 1295.66 10.0199C1287.84 8.32692 1281.36 11.4192 1277.68 18.1393C1274.28 24.3152 1275.44 31.7523 1280.76 37.1422C1285.13 41.5733 1289.61 45.8921 1294 50.2974C1303.47 59.8593 1312.92 69.4212 1322.93 79.5359V79.5186ZM1323.5 110.675C1322.3 111.694 1321.75 112.117 1321.2 112.618C1307.83 125.834 1294.46 139.058 1281.09 152.291C1275.47 157.854 1274.19 165.334 1277.67 171.631C1281.54 178.619 1288.41 181.59 1296.54 179.646C1300.04 178.783 1303.59 177.841 1307.03 176.71C1316.82 173.471 1326.58 172.546 1336.55 176.07C1340.64 177.522 1344.91 178.498 1349.13 179.595C1357 181.616 1364.15 178.8 1367.96 172.279C1371.78 165.757 1370.76 158.208 1365.11 152.541C1357.24 144.655 1349.26 136.873 1341.39 128.978C1335.37 122.957 1329.49 116.825 1323.5 110.692V110.675ZM1645.82 79.4668C1649.74 75.3293 1652.93 71.7879 1656.31 68.4278C1666.8 58.0108 1677.29 47.6974 1687.78 37.2545C1693.54 31.4845 1694.51 24.1166 1690.69 17.5347C1686.97 11.1428 1680.2 8.31829 1672.33 10.1063C1668.51 10.97 1664.75 12.1102 1660.97 13.2331C1652.65 15.7208 1644.36 17.3533 1635.69 14.6842C1630.14 12.9567 1624.53 11.4192 1618.88 10.089C1611.02 8.21463 1604.07 11.3069 1600.39 18.027C1596.89 24.4189 1598.14 31.8473 1603.67 37.3668C1605.92 39.6212 1608.18 41.8497 1610.44 44.0955L1645.82 79.4668ZM1662.1 94.1508C1662.3 94.7528 1662.57 95.3319 1662.89 95.8783C1676.88 109.699 1690.75 123.674 1704.85 137.382C1710.26 142.643 1717.89 143.1 1724.18 139.248C1730.7 135.266 1733.65 128.451 1731.24 121.023C1726.22 105.561 1722.76 90.1688 1729.78 74.3792C1730.43 72.625 1730.94 70.8227 1731.3 68.9893C1733.29 61.319 1730.71 54.6335 1724.3 50.6947C1717.69 46.6523 1710.32 47.4469 1704.31 53.0441C1700.38 56.6892 1696.66 60.533 1692.82 64.2731C1682.57 74.218 1672.33 84.1599 1662.1 94.099V94.1508ZM1409.27 145.735C1392.23 155.599 1380.67 149.942 1370.8 139.559C1359.77 127.898 1348.02 116.902 1336.62 105.578C1334.72 103.687 1333.13 102.408 1331.15 106.935C1332.25 107.447 1333.29 108.085 1334.24 108.835C1346.73 121.1 1359.19 133.4 1371.62 145.735C1379.28 153.362 1381.68 162.388 1378.14 172.659C1377.27 175.25 1375.67 177.72 1374.38 180.312C1397.49 184.363 1413.71 171.829 1409.27 145.735ZM1594.25 180.286C1585.76 162.881 1587.05 155.565 1600.75 142.038C1612.08 130.844 1623.4 119.666 1634.72 108.507C1635.6 107.643 1636.39 106.667 1637.14 105.838C1635.28 102.503 1633.82 103.739 1632.01 105.535C1619.4 118.086 1606.66 130.541 1594.05 143.066C1587.22 149.838 1579.04 152.326 1569.71 150.183C1566.03 149.32 1562.63 147.316 1559.05 145.813C1555.07 174.835 1573.66 183.723 1594.25 180.286ZM1236.45 23.6847C1236.44 25.5929 1236.81 27.4849 1237.53 29.2525C1238.26 31.02 1239.33 32.6285 1240.69 33.9858C1242.05 35.3432 1243.66 36.4228 1245.44 37.163C1247.22 37.9032 1249.14 38.2895 1251.07 38.2996C1253.94 38.2925 1256.75 37.4467 1259.14 35.8684C1261.52 34.2901 1263.39 32.0497 1264.49 29.4285C1265.6 26.8073 1265.89 23.9222 1265.34 21.1354C1264.79 18.3487 1263.42 15.7846 1261.4 13.7651C1259.38 11.7455 1256.8 10.3607 1253.99 9.78436C1251.18 9.20804 1248.25 9.46597 1245.59 10.5258C1242.92 11.5855 1240.63 13.3999 1239.01 15.7411C1237.38 18.0822 1236.49 20.8458 1236.45 23.6847V23.6847ZM1717.26 38.196C1720.13 38.2424 1722.96 37.4478 1725.38 35.9119C1727.8 34.376 1729.7 32.1675 1730.85 29.5642C1732.01 26.9609 1732.35 24.079 1731.85 21.2809C1731.35 18.4829 1730.03 15.8936 1728.04 13.8388C1726.05 11.7841 1723.5 10.3555 1720.69 9.73283C1717.88 9.11016 1714.96 9.32119 1712.27 10.3394C1709.59 11.3575 1707.27 13.1374 1705.6 15.4551C1703.94 17.7728 1703 20.5249 1702.92 23.3651C1702.85 25.2772 1703.18 27.1829 1703.87 28.9701C1704.56 30.7573 1705.6 32.3899 1706.94 33.7718C1708.28 35.1537 1709.89 36.257 1711.67 37.0168C1713.44 37.7766 1715.36 38.1775 1717.29 38.196H1717.26ZM1656.94 86.4633L1704.28 39.9581L1700.57 36.5894C1697.87 39.673 1695.58 42.6357 1692.95 45.227C1680.78 57.3716 1668.57 69.4644 1656.3 81.5053C1654.45 83.3019 1653.31 84.8221 1656.94 86.4633ZM1314.5 83.872L1268.22 37.6345L1263.92 40.3209C1268.24 44.251 1272.17 47.6197 1275.86 51.2216C1287.12 62.226 1298.33 73.288 1309.47 84.4075C1311.39 86.3164 1312.84 87.1716 1314.5 83.872Z" fill="url(#paint0_radial_419_3)"/>
<path d="M1602.32 349.152C1612.2 359.06 1621.55 368.518 1631.01 377.881C1664.98 411.488 1698.97 445.074 1732.97 478.64C1736.07 481.697 1738.71 485.023 1738.11 489.566C1737.16 496.874 1731.99 501.339 1725.88 504.25C1720.16 506.98 1715.38 504.181 1711.1 499.932C1668.62 457.849 1626.08 415.812 1583.47 373.822C1580.99 371.386 1580.93 370.073 1583.47 367.697C1589.76 361.919 1595.66 355.777 1602.32 349.152Z" fill="url(#paint1_radial_419_3)"/>
<path d="M1366.54 349.826L1387.52 370.798C1386.94 371.658 1386.31 372.474 1385.61 373.243C1342.68 415.694 1299.74 458.134 1256.78 500.562C1251.89 505.391 1246.74 506.755 1241.83 503.948C1235.48 500.303 1229.37 493.894 1230.62 487.813C1231.18 484.877 1232.54 482.151 1234.57 479.935C1278.01 436.747 1321.54 393.662 1365.15 350.681C1365.58 350.352 1366.05 350.066 1366.54 349.826V349.826Z" fill="url(#paint2_radial_419_3)"/>
<path d="M1707.5 504.709L1676.03 536.133C1669.84 533.274 1667.86 527.624 1667.24 521.336C1667.14 520.205 1668.17 518.745 1669.09 517.786C1673.65 513.165 1678.35 508.682 1682.75 504.38L1642.64 465.001C1638.96 468.845 1634.82 473.233 1630.61 477.552C1627.51 480.731 1620.07 481.007 1616.62 478.139C1614.4 476.291 1612.25 474.373 1610.19 472.611L1643.09 440.729L1707.5 504.709Z" fill="url(#paint3_radial_419_3)"/>
<path d="M1271.56 411.197C1267.26 407.189 1262.89 403 1258.38 398.958C1256.1 396.902 1255.71 395.002 1255.93 391.668C1256.34 385.345 1260.61 382.624 1264.12 379.221L1296.72 411.387C1295.93 412.251 1294.86 413.573 1293.67 414.756C1273.9 434.286 1254.07 453.755 1234.45 473.345C1231.9 475.937 1230.44 475.937 1227.92 473.345C1219.22 464.449 1210.28 455.794 1201.45 447.026C1200.57 446.163 1199.77 445.109 1199 444.228C1202.16 437.534 1208.07 435.677 1214.51 434.942C1215.48 434.83 1216.79 436.005 1217.66 436.869C1222.38 441.524 1227.03 446.266 1231.61 450.896L1271.56 411.197Z" fill="url(#paint4_radial_419_3)"/>
<path d="M1704.2 379.41C1710.6 382.399 1712.56 388.048 1713.23 394.336C1713.35 395.433 1712.22 396.927 1711.3 397.791C1706.69 402.378 1701.97 406.835 1697.54 411.093L1737.75 450.498C1741.32 446.775 1745.62 442.301 1749.89 437.879C1752.51 435.149 1760.51 434.7 1763.42 437.179C1765.32 438.747 1767.06 440.504 1768.59 442.422C1769.12 443.113 1769.15 445.013 1768.59 445.592C1758.54 455.957 1748.35 466.167 1738.42 476.187L1672.46 410.903L1704.2 379.41Z" fill="url(#paint5_radial_419_3)"/>
<path d="M1293.3 536.727C1281.81 525.395 1271.15 514.874 1259.66 503.559C1281.4 482.405 1303.37 461.07 1325.08 439.934C1335.81 450.774 1346.44 461.528 1357.42 472.567C1354.8 477.507 1349.35 480.073 1342.68 480.418C1341.49 480.479 1340.05 479.485 1339.05 478.579C1334.97 474.709 1330.95 470.75 1326.99 466.702C1325.48 465.147 1324.37 464.827 1322.7 466.494C1310.37 478.691 1297.97 490.827 1285.16 503.403C1289.82 508.05 1294.18 512.404 1298.56 516.748C1301.53 519.702 1301.99 526.967 1299.28 530.206C1297.32 532.504 1295.16 534.672 1293.3 536.727Z" fill="url(#paint6_radial_419_3)"/>
<path d="M1377.4 334.278C1378.36 334.948 1379.28 335.668 1380.16 336.438C1387.26 343.434 1394.31 350.483 1401.42 357.462C1403.29 359.293 1403.84 360.727 1401.42 362.714C1398.8 364.899 1396.67 367.741 1394 369.883C1393.12 370.6 1390.5 370.695 1389.78 369.986C1382.14 362.742 1374.63 355.34 1367.27 347.779C1366.52 347.01 1366.29 344.609 1366.91 343.883C1369.59 340.896 1372.43 338.045 1375.41 335.341C1376.03 334.905 1376.69 334.547 1377.4 334.278V334.278Z" fill="url(#paint7_radial_419_3)"/>
<path d="M1602.77 345.991C1602.15 346.857 1601.48 347.687 1600.76 348.478C1593.7 355.509 1586.58 362.48 1579.55 369.546C1577.53 371.575 1576.05 372.137 1573.94 369.494C1571.84 366.851 1569.08 364.985 1567 362.445C1566.24 361.521 1565.93 359.034 1566.57 358.368C1574 350.672 1581.6 343.158 1589.3 335.729C1590 335.047 1592.13 334.693 1592.69 335.194C1596.03 338.113 1599.12 341.326 1602.25 344.47C1602.51 344.738 1602.53 345.256 1602.77 345.991Z" fill="url(#paint8_radial_419_3)"/>
<defs>
<radialGradient id="paint0_radial_419_3" cx="0" cy="0" r="1" gradientUnits="userSpaceOnUse" gradientTransform="translate(1483.99 -7.57262e-06) rotate(90) scale(529.057 170.776)">
<stop stop-color="#8A6E2F"/>
<stop offset="0.25" stop-color="#FEDB37"/>
<stop offset="0.953125" stop-color="#9F7928"/>
</radialGradient>
<radialGradient id="paint1_radial_419_3" cx="0" cy="0" r="1" gradientUnits="userSpaceOnUse" gradientTransform="translate(1665.17 302.402) rotate(92.2844) scale(207.901 87.9285)">
<stop stop-color="#8A6E2F"/>
<stop offset="0.453125" stop-color="#FEDB37"/>
<stop offset="0.953125" stop-color="#9F7928"/>
</radialGradient>
<radialGradient id="paint2_radial_419_3" cx="0" cy="0" r="1" gradientUnits="userSpaceOnUse" gradientTransform="translate(1314.28 303.26) rotate(92.2999) scale(207.087 88.1802)">
<stop stop-color="#8A6E2F"/>
<stop offset="0.453125" stop-color="#FEDB37"/>
<stop offset="0.953125" stop-color="#9F7928"/>
</radialGradient>
<radialGradient id="paint3_radial_419_3" cx="0" cy="0" r="1" gradientUnits="userSpaceOnUse" gradientTransform="translate(1662.12 412.172) rotate(92.3236) scale(127 54.6346)">
<stop stop-color="#8A6E2F"/>
<stop offset="0.453125" stop-color="#FEDB37"/>
<stop offset="0.953125" stop-color="#9F7928"/>
</radialGradient>
<radialGradient id="paint4_radial_419_3" cx="0" cy="0" r="1" gradientUnits="userSpaceOnUse" gradientTransform="translate(1251.15 350.464) rotate(92.3171) scale(127.885 54.8606)">
<stop stop-color="#8A6E2F"/>
<stop offset="0.453125" stop-color="#FEDB37"/>
<stop offset="0.953125" stop-color="#9F7928"/>
</radialGradient>
<radialGradient id="paint5_radial_419_3" cx="0" cy="0" r="1" gradientUnits="userSpaceOnUse" gradientTransform="translate(1723.99 350.442) rotate(92.2724) scale(128.824 54.1991)">
<stop stop-color="#8A6E2F"/>
<stop offset="0.453125" stop-color="#FEDB37"/>
<stop offset="0.953125" stop-color="#9F7928"/>
</radialGradient>
<radialGradient id="paint6_radial_419_3" cx="0" cy="0" r="1" gradientUnits="userSpaceOnUse" gradientTransform="translate(1311.84 410.96) rotate(92.3008) scale(128.85 54.8858)">
<stop stop-color="#8A6E2F"/>
<stop offset="0.453125" stop-color="#FEDB37"/>
<stop offset="0.953125" stop-color="#9F7928"/>
</radialGradient>
<radialGradient id="paint7_radial_419_3" cx="0" cy="0" r="1" gradientUnits="userSpaceOnUse" gradientTransform="translate(1386.02 323.444) rotate(92.2964) scale(48.1796 20.4837)">
<stop stop-color="#8A6E2F"/>
<stop offset="0.453125" stop-color="#FEDB37"/>
<stop offset="0.953125" stop-color="#9F7928"/>
</radialGradient>
<radialGradient id="paint8_radial_419_3" cx="0" cy="0" r="1" gradientUnits="userSpaceOnUse" gradientTransform="translate(1585.73 324.086) rotate(92.2919) scale(48.347 20.5152)">
<stop stop-color="#8A6E2F"/>
<stop offset="0.453125" stop-color="#FEDB37"/>
<stop offset="0.953125" stop-color="#9F7928"/>
</radialGradient>
</defs>
</svg>
