<svg width="446" height="82" viewBox="0 0 446 82" fill="none" xmlns="http://www.w3.org/2000/svg">
<path d="M247.42 51.0931C254.771 51.0931 259.36 45.5823 259.36 36.4056C259.36 26.0713 254.928 20.571 247.496 20.571C239.61 20.571 235.629 25.5441 235.629 35.5632C235.629 45.6583 239.996 51.0931 247.42 51.0931ZM229.281 0.826916H235.86V21.4055C238.926 16.9028 243.292 14.5223 248.795 14.5223C259.208 14.5223 266.409 22.6365 266.409 35.9436C266.409 49.0279 259.36 57.0579 248.876 57.0579C243.368 57.0579 239.23 55.1421 235.86 50.7942V55.835H229.281V0.826916Z" fill="white"/>
<path d="M290.439 51.0931C298.246 51.0931 302.608 45.7398 302.608 35.7942C302.608 25.8485 298.246 20.4952 290.439 20.4952C282.486 20.4952 278.111 25.8485 278.111 35.7942C278.111 45.7398 282.559 51.0931 290.439 51.0931ZM290.366 14.5223C302.458 14.5223 309.578 22.2479 309.578 35.7942C309.578 49.3404 302.459 57.0579 290.439 57.0579C278.342 57.0579 271.227 49.3404 271.227 35.7942C271.227 22.2479 278.342 14.5223 290.366 14.5223Z" fill="white"/>
<path d="M333.388 51.0931C340.733 51.0931 345.326 45.5823 345.326 36.4056C345.326 26.0713 340.896 20.571 333.464 20.571C325.584 20.571 321.602 25.5441 321.602 35.5632C321.602 45.6583 325.964 51.0931 333.388 51.0931ZM315.249 0.826916H321.833V21.4055C324.891 16.9028 329.266 14.5223 334.76 14.5223C345.176 14.5223 352.377 22.6365 352.377 35.9436C352.377 49.0279 345.326 57.0579 334.85 57.0579C329.333 57.0579 325.195 55.1421 321.833 50.7942V55.835H315.249V0.826916Z" fill="white"/>
<path d="M375.793 51.0931C383.6 51.0931 387.967 45.7398 387.967 35.7942C387.967 25.8485 383.6 20.4952 375.793 20.4952C367.839 20.4952 363.464 25.8485 363.464 35.7942C363.464 45.7398 367.92 51.0931 375.793 51.0931ZM375.719 14.5223C387.818 14.5223 394.937 22.2479 394.937 35.7942C394.937 49.3404 387.818 57.0579 375.793 57.0579C363.695 57.0579 356.589 49.3404 356.589 35.7942C356.589 22.2479 363.695 14.5223 375.719 14.5223Z" fill="white"/>
<path d="M400.829 15.8211H407.567V55.835H400.829V15.8211ZM400.829 0.826904H407.567V8.48399H400.829V0.826904Z" fill="white"/>
<path d="M419.122 42.8321C419.578 48.2615 423.021 51.093 429.299 51.093C435.19 51.093 438.641 48.5658 438.641 44.7343C438.641 41.3783 436.649 40.3049 432.527 39.3049L425.014 37.3973C417.133 35.4815 413.681 32.8049 413.681 26.1527C413.681 19.2666 419.122 14.598 428.687 14.598C438.253 14.598 444.307 19.4217 444.307 26.8484V26.9951H437.717C437.486 22.7831 434.13 20.3323 428.687 20.3323C423.261 20.3323 420.421 22.3293 420.421 25.9163C420.421 28.832 422.405 29.8973 426.698 30.9027L433.198 32.4245C441.391 34.3321 445.38 36.8593 445.38 43.8919C445.38 52.0849 439.407 57.0496 428.687 57.0496C418.429 57.0496 412.771 52.0033 412.614 42.8321" fill="white"/>
<path d="M0.26123 15.3104H15.1988V22.7369C17.3401 16.7719 21.2396 14.2453 27.8266 14.2453H29.2831V30.3864C28.0548 30.237 26.9869 30.1554 25.9896 30.1554C19.4814 30.1554 16.5032 32.9951 16.5032 39.2587V55.9436H0.26123" fill="white"/>
<path d="M54.2396 46.1475C59.1335 46.1475 60.9679 42.7914 60.9679 35.5903C60.9679 28.3973 59.1335 25.1012 54.2396 25.1012C49.3373 25.1012 47.5794 28.3973 47.5794 35.5903C47.5794 42.7914 49.3373 46.1475 54.2396 46.1475ZM54.2396 13.8649C68.5492 13.8649 77.2045 22.1256 77.2045 35.5903C77.2045 49.0551 68.5492 57.3975 54.2396 57.3975C39.916 57.3975 31.2667 49.0551 31.2667 35.5903C31.2667 22.1256 39.916 13.8649 54.2396 13.8649Z" fill="white"/>
<path d="M125.275 40.1094C124.582 50.7398 116.317 57.3975 103.224 57.3975C88.683 57.3975 79.8788 48.9056 79.8788 35.5903C79.8788 22.1256 88.683 13.8593 103.08 13.8593C116.317 13.8593 124.74 20.5981 125.124 30.7669H108.968C108.664 26.9408 106.751 25.1012 103.001 25.1012C98.251 25.1012 96.1856 28.4707 96.1856 35.5903C96.1856 42.7914 98.1697 46.1475 102.849 46.1475C106.593 46.1475 108.74 44.0822 109.126 40.1094" fill="white"/>
<path d="M129.335 0.935333H145.487V19.6742C148.779 16.0791 152.906 14.2453 157.963 14.2453C163.17 14.2453 167.077 15.8481 169.835 19.1365C172.896 22.8103 173.208 27.7831 173.208 34.8212V55.9436H157.042V34.8973C157.042 29.313 155.976 26.7858 151.536 26.7858C147.477 26.7858 145.487 29.4625 145.487 34.9788V55.9436H129.335" fill="white"/>
<path d="M207.418 31.0794C207.116 26.0332 204.662 23.4979 200.067 23.4979C195.857 23.4979 193.26 26.256 193.017 31.0794H207.418ZM222.042 43.9246C219.822 52.729 212.159 57.3975 199.61 57.3975C185.529 57.3975 176.871 48.9056 176.871 35.9708C176.871 22.3484 185.749 13.8593 200.222 13.8593C214.618 13.8593 223.344 22.8865 223.344 38.1909V39.1773H193.017C193.175 44.3865 195.857 47.2942 200.528 47.2942C203.667 47.2942 205.806 46.0714 206.575 43.9246H222.042Z" fill="white"/>
<path d="M319.959 74.2861C321.358 74.2861 322.01 73.7236 322.01 72.365C322.01 71.1149 321.371 70.4465 320.108 70.4465H317.296V74.2861H319.959ZM317.296 81.4058H314.564V68.1366H320.475C323.279 68.1366 324.72 69.6204 324.72 72.3975C324.72 75.1367 323.279 76.6856 320.657 76.6856H317.296V81.4058Z" fill="white"/>
<path d="M349.184 76.4465H352.871L351.024 70.7943L349.184 76.4465ZM352.594 68.1366L357.383 81.4058H354.516L353.614 78.6748H348.464L347.594 81.4058H344.714L349.442 68.1366H352.594Z" fill="white"/>
<path d="M383.885 73.9248C385.271 73.9248 385.915 73.3894 385.915 72.1747C385.915 71.0334 385.29 70.4193 384.021 70.4193H380.679V73.9248H383.885ZM377.948 68.1448H384.388C387.269 68.1448 388.654 69.3405 388.654 71.8948C388.654 73.5252 387.948 74.6313 386.684 75.0334C387.926 75.4818 388.265 76.3242 388.32 77.9356L388.369 79.5036C388.396 80.278 388.396 80.7399 388.885 80.99V81.4058H385.902C385.706 81.0172 385.603 80.4628 385.584 79.7399L385.548 78.3432C385.488 76.778 385.086 76.2345 383.573 76.2345H380.679V81.4058H377.948V68.1448Z" fill="white"/>
<path d="M410.421 81.4058H413.152V68.1448H410.421V81.4058Z" fill="white"/>
<path d="M437.282 77.3162C437.479 78.7835 438.478 79.4494 440.304 79.4494C441.915 79.4494 442.718 78.8786 442.718 77.7645C442.718 76.5553 441.595 76.3107 439.158 75.7618C438.098 75.5227 437.106 75.3325 436.228 74.7835C435.285 74.1912 434.788 73.1585 434.788 71.7727C434.788 69.2047 436.562 67.7781 439.905 67.7781C443.022 67.7781 444.829 69.3216 444.924 71.9765H442.302C442.215 70.6857 441.305 70.0009 439.66 70.0009C438.226 70.0009 437.432 70.5906 437.432 71.6096C437.432 72.8596 438.443 72.8596 440.644 73.4167C441.894 73.7238 442.927 73.9873 443.764 74.4493C444.85 75.0553 445.386 76.0525 445.386 77.4194C445.386 80.1559 443.492 81.7727 440.055 81.7727C436.671 81.7727 434.734 80.1423 434.579 77.3162" fill="white"/>
</svg>
